<?xml version="1.0" standalone="no"?>
<!DOCTYPE svg PUBLIC "-//W3C//DTD SVG 1.1//EN" "http://www.w3.org/Graphics/SVG/1.1/DTD/svg11.dtd" >
<svg>
<metadata>
Created by FontForge 20090622 at Thu Jun  7 06:37:05 2018
 By deploy user
URW Software, Copyright 1994 by URW
</metadata>
<defs>
<font id="AlternateGotNo2D" horiz-adv-x="380" >
  <font-face 
    font-family="Alternate Gothic No2 D"
    font-weight="400"
    font-stretch="normal"
    units-per-em="1000"
    panose-1="2 0 5 6 3 0 0 2 0 4"
    ascent="800"
    descent="-200"
    x-height="497"
    cap-height="667"
    bbox="-93 -177 732 846"
    underline-thickness="62"
    underline-position="-5"
    unicode-range="U+0005-U+2122"
  />
<missing-glyph horiz-adv-x="177" 
 />
    <glyph glyph-name=".notdef" horiz-adv-x="177" 
 />
    <glyph glyph-name=".null" horiz-adv-x="0" 
 />
    <glyph glyph-name="nonmarkingreturn" horiz-adv-x="177" 
 />
    <glyph glyph-name="space" unicode=" " horiz-adv-x="177" 
 />
    <glyph glyph-name="space" unicode="&#xa0;" horiz-adv-x="177" 
 />
    <glyph glyph-name="Atilde" unicode="&#xc3;" horiz-adv-x="405" 
d="M149 147l-23 -147h-99l109 667h130l116 -667h-103l-23 147h-107zM201 506l-38 -266h78zM106 787q15 8 27 11.5t28 3.5q12 0 21 -1.5t22 -6.5q20 -8 28.5 -10t19.5 -2t20 3t27 14v-69q-18 -11 -27 -14t-20 -3t-19.5 2t-28.5 10q-13 5 -22 6.5t-21 1.5q-16 0 -28 -3.5
t-27 -11.5v69z" />
    <glyph glyph-name="Aring" unicode="&#xc5;" horiz-adv-x="405" 
d="M149 147l-23 -147h-99l109 667h130l116 -667h-103l-23 147h-107zM201 506l-38 -266h78zM204 846q30 0 51.5 -20t21.5 -49t-21.5 -49.5t-51.5 -20.5q-31 0 -52.5 20.5t-21.5 49.5t21.5 49t52.5 20zM203 811q-14 0 -25 -10t-11 -24t10.5 -24.5t26.5 -10.5q15 0 25.5 10.5
t10.5 24.5t-10.5 24t-26.5 10z" />
    <glyph glyph-name="Edieresis" unicode="&#xcb;" horiz-adv-x="348" 
d="M317 574h-172v-182h124v-93h-124v-206h172v-93h-272v667h272v-93zM148 720h-87v89h87v-89zM288 720h-87v89h87v-89z" />
    <glyph glyph-name="Eacute" unicode="&#xc9;" horiz-adv-x="348" 
d="M317 574h-172v-182h124v-93h-124v-206h172v-93h-272v667h272v-93zM173 800h96l-72 -80h-70z" />
    <glyph glyph-name="Egrave" unicode="&#xc8;" horiz-adv-x="348" 
d="M317 574h-172v-182h124v-93h-124v-206h172v-93h-272v667h272v-93zM139 720l-72 80h97l45 -80h-70z" />
    <glyph glyph-name="Ecircumflex" unicode="&#xca;" horiz-adv-x="348" 
d="M317 574h-172v-182h124v-93h-124v-206h172v-93h-272v667h272v-93zM225 800l58 -80h-80l-28 31l-29 -31h-80l58 80h101z" />
    <glyph glyph-name="Idieresis" unicode="&#xcf;" horiz-adv-x="189" 
d="M145 0h-100v667h100v-667zM75 720h-87v89h87v-89zM201 720h-87v89h87v-89z" />
    <glyph glyph-name="Iacute" unicode="&#xcd;" horiz-adv-x="189" 
d="M145 0h-100v667h100v-667zM93 800h96l-72 -80h-70z" />
    <glyph glyph-name="Igrave" unicode="&#xcc;" horiz-adv-x="189" 
d="M145 0h-100v667h100v-667zM59 720l-72 80h97l45 -80h-70z" />
    <glyph glyph-name="Icircumflex" unicode="&#xce;" horiz-adv-x="189" 
d="M145 0h-100v667h100v-667zM145 800l58 -80h-80l-28 31l-29 -31h-80l58 80h101z" />
    <glyph glyph-name="Ntilde" unicode="&#xd1;" horiz-adv-x="420" 
d="M283 0l-145 412v-412h-93v667h101l137 -396v396h93v-667h-93zM114 787q15 8 27 11.5t28 3.5q12 0 21 -1.5t22 -6.5q20 -8 28.5 -10t19.5 -2t20 3t27 14v-69q-18 -11 -27 -14t-20 -3t-19.5 2t-28.5 10q-13 5 -22 6.5t-21 1.5q-16 0 -28 -3.5t-27 -11.5v69z" />
    <glyph glyph-name="Odieresis" unicode="&#xd6;" horiz-adv-x="397" 
d="M355 217q0 -37 -2 -63.5t-6.5 -46t-12 -34.5t-19.5 -30q-20 -25 -51 -39t-66 -14t-65.5 14t-50.5 39q-12 15 -20 30t-12.5 35t-6 46t-1.5 63v233q0 37 1.5 63t6 46t12.5 35t20 30q20 25 50.5 39t65.5 14t66 -14t51 -39q12 -15 19.5 -30t12 -34.5t6.5 -46t2 -63.5v-233z
M142 228q0 -50 1.5 -74t5.5 -35q14 -36 50 -36q41 0 52 46q4 17 4 99v211q0 51 -1.5 74.5t-5.5 34.5q-14 36 -49 36q-42 0 -53 -46q-2 -9 -3 -35t-1 -64v-211zM172 720h-87v89h87v-89zM312 720h-87v89h87v-89z" />
    <glyph glyph-name="Oacute" unicode="&#xd3;" horiz-adv-x="397" 
d="M355 217q0 -37 -2 -63.5t-6.5 -46t-12 -34.5t-19.5 -30q-20 -25 -51 -39t-66 -14t-65.5 14t-50.5 39q-12 15 -20 30t-12.5 35t-6 46t-1.5 63v233q0 37 1.5 63t6 46t12.5 35t20 30q20 25 50.5 39t65.5 14t66 -14t51 -39q12 -15 19.5 -30t12 -34.5t6.5 -46t2 -63.5v-233z
M142 228q0 -50 1.5 -74t5.5 -35q14 -36 50 -36q41 0 52 46q4 17 4 99v211q0 51 -1.5 74.5t-5.5 34.5q-14 36 -49 36q-42 0 -53 -46q-2 -9 -3 -35t-1 -64v-211zM197 800h96l-72 -80h-70z" />
    <glyph glyph-name="Ograve" unicode="&#xd2;" horiz-adv-x="397" 
d="M355 217q0 -37 -2 -63.5t-6.5 -46t-12 -34.5t-19.5 -30q-20 -25 -51 -39t-66 -14t-65.5 14t-50.5 39q-12 15 -20 30t-12.5 35t-6 46t-1.5 63v233q0 37 1.5 63t6 46t12.5 35t20 30q20 25 50.5 39t65.5 14t66 -14t51 -39q12 -15 19.5 -30t12 -34.5t6.5 -46t2 -63.5v-233z
M142 228q0 -50 1.5 -74t5.5 -35q14 -36 50 -36q41 0 52 46q4 17 4 99v211q0 51 -1.5 74.5t-5.5 34.5q-14 36 -49 36q-42 0 -53 -46q-2 -9 -3 -35t-1 -64v-211zM163 720l-72 80h97l45 -80h-70z" />
    <glyph glyph-name="Ocircumflex" unicode="&#xd4;" horiz-adv-x="397" 
d="M355 217q0 -37 -2 -63.5t-6.5 -46t-12 -34.5t-19.5 -30q-20 -25 -51 -39t-66 -14t-65.5 14t-50.5 39q-12 15 -20 30t-12.5 35t-6 46t-1.5 63v233q0 37 1.5 63t6 46t12.5 35t20 30q20 25 50.5 39t65.5 14t66 -14t51 -39q12 -15 19.5 -30t12 -34.5t6.5 -46t2 -63.5v-233z
M142 228q0 -50 1.5 -74t5.5 -35q14 -36 50 -36q41 0 52 46q4 17 4 99v211q0 51 -1.5 74.5t-5.5 34.5q-14 36 -49 36q-42 0 -53 -46q-2 -9 -3 -35t-1 -64v-211zM249 800l58 -80h-80l-28 31l-29 -31h-80l58 80h101z" />
    <glyph glyph-name="Otilde" unicode="&#xd5;" horiz-adv-x="397" 
d="M355 217q0 -37 -2 -63.5t-6.5 -46t-12 -34.5t-19.5 -30q-20 -25 -51 -39t-66 -14t-65.5 14t-50.5 39q-12 15 -20 30t-12.5 35t-6 46t-1.5 63v233q0 37 1.5 63t6 46t12.5 35t20 30q20 25 50.5 39t65.5 14t66 -14t51 -39q12 -15 19.5 -30t12 -34.5t6.5 -46t2 -63.5v-233z
M142 228q0 -50 1.5 -74t5.5 -35q14 -36 50 -36q41 0 52 46q4 17 4 99v211q0 51 -1.5 74.5t-5.5 34.5q-14 36 -49 36q-42 0 -53 -46q-2 -9 -3 -35t-1 -64v-211zM102 787q15 8 27 11.5t28 3.5q12 0 21 -1.5t22 -6.5q20 -8 28.5 -10t19.5 -2t20 3t27 14v-69q-18 -11 -27 -14
t-20 -3t-19.5 2t-28.5 10q-13 5 -22 6.5t-21 1.5q-16 0 -28 -3.5t-27 -11.5v69z" />
    <glyph glyph-name="Scaron" unicode="&#x160;" horiz-adv-x="371" 
d="M243 503q-5 45 -17.5 63t-40.5 18q-26 0 -41 -18t-15 -48q0 -17 4 -31.5t14 -30.5t27 -34t44 -43q39 -36 64 -63t39.5 -51.5t20 -49t5.5 -54.5q0 -38 -11.5 -69.5t-32.5 -54t-50 -35t-64 -12.5q-37 0 -67 13t-51.5 36.5t-34 56.5t-13.5 74l95 17q4 -104 71 -104
q28 0 44.5 20t16.5 53q0 37 -26 72q-6 8 -11 14t-13 14l-20.5 20l-33.5 31q-32 29 -53.5 54.5t-35 49.5t-19.5 48.5t-6 52.5q0 75 42.5 120t114.5 45q133 0 151 -160zM135 720l-58 80h80l29 -31l28 31h80l-58 -80h-101z" />
    <glyph glyph-name="Udieresis" unicode="&#xdc;" horiz-adv-x="403" 
d="M358 667v-450q0 -37 -2 -63.5t-6.5 -46t-12 -34.5t-19.5 -30q-20 -25 -51 -39t-66 -14t-65.5 14t-50.5 39q-12 15 -20 30t-12.5 35t-6 46t-1.5 63v450h100v-439q0 -50 1.5 -74t5.5 -35q14 -36 50 -36q41 0 52 46q4 17 4 99v439h100zM175 720h-87v89h87v-89zM315 720h-87
v89h87v-89z" />
    <glyph glyph-name="Uacute" unicode="&#xda;" horiz-adv-x="403" 
d="M358 667v-450q0 -37 -2 -63.5t-6.5 -46t-12 -34.5t-19.5 -30q-20 -25 -51 -39t-66 -14t-65.5 14t-50.5 39q-12 15 -20 30t-12.5 35t-6 46t-1.5 63v450h100v-439q0 -50 1.5 -74t5.5 -35q14 -36 50 -36q41 0 52 46q4 17 4 99v439h100zM200 800h96l-72 -80h-70z" />
    <glyph glyph-name="Ugrave" unicode="&#xd9;" horiz-adv-x="403" 
d="M358 667v-450q0 -37 -2 -63.5t-6.5 -46t-12 -34.5t-19.5 -30q-20 -25 -51 -39t-66 -14t-65.5 14t-50.5 39q-12 15 -20 30t-12.5 35t-6 46t-1.5 63v450h100v-439q0 -50 1.5 -74t5.5 -35q14 -36 50 -36q41 0 52 46q4 17 4 99v439h100zM166 720l-72 80h97l45 -80h-70z" />
    <glyph glyph-name="Ucircumflex" unicode="&#xdb;" horiz-adv-x="403" 
d="M358 667v-450q0 -37 -2 -63.5t-6.5 -46t-12 -34.5t-19.5 -30q-20 -25 -51 -39t-66 -14t-65.5 14t-50.5 39q-12 15 -20 30t-12.5 35t-6 46t-1.5 63v450h100v-439q0 -50 1.5 -74t5.5 -35q14 -36 50 -36q41 0 52 46q4 17 4 99v439h100zM252 800l58 -80h-80l-28 31l-29 -31
h-80l58 80h101z" />
    <glyph glyph-name="Yacute" unicode="&#xdd;" horiz-adv-x="372" 
d="M238 0h-100v270l-125 397h104l71 -262l69 262h101l-120 -397v-270zM184 800h96l-72 -80h-70z" />
    <glyph glyph-name="Zcaron" horiz-adv-x="352" 
d="M326 0h-299v93l193 481h-178v93h284v-93l-192 -481h192v-93zM126 720l-58 80h80l29 -31l28 31h80l-58 -80h-101z" />
    <glyph glyph-name="Ydieresis" unicode="&#x178;" horiz-adv-x="372" 
d="M238 0h-100v270l-125 397h104l71 -262l69 262h101l-120 -397v-270zM159 720h-87v89h87v-89zM299 720h-87v89h87v-89z" />
    <glyph glyph-name="adieresis" unicode="&#xe4;" horiz-adv-x="346" 
d="M222 0q-2 9 -2.5 15.5t-1.5 12t-1.5 12t-1.5 16.5q-54 -63 -104 -63q-37 0 -59 32t-22 86q0 32 8 57.5t28.5 49.5t56 48.5t90.5 55.5v32q0 41 -7.5 54.5t-29.5 13.5q-21 0 -30.5 -15.5t-11.5 -52.5h-92q5 72 42 111t100 39q31 0 55.5 -11t38.5 -32q15 -20 20 -43.5
t5 -73.5v-164q0 -43 0.5 -69.5t1 -45t2.5 -32.5t5 -33h-90zM213 253q-49 -31 -69.5 -59.5t-20.5 -66.5q0 -24 8.5 -38t22.5 -14q32 0 59 46v132zM152 578h-87v89h87v-89zM292 578h-87v89h87v-89z" />
    <glyph glyph-name="aacute" unicode="&#xe1;" horiz-adv-x="346" 
d="M222 0q-2 9 -2.5 15.5t-1.5 12t-1.5 12t-1.5 16.5q-54 -63 -104 -63q-37 0 -59 32t-22 86q0 32 8 57.5t28.5 49.5t56 48.5t90.5 55.5v32q0 41 -7.5 54.5t-29.5 13.5q-21 0 -30.5 -15.5t-11.5 -52.5h-92q5 72 42 111t100 39q31 0 55.5 -11t38.5 -32q15 -20 20 -43.5
t5 -73.5v-164q0 -43 0.5 -69.5t1 -45t2.5 -32.5t5 -33h-90zM213 253q-49 -31 -69.5 -59.5t-20.5 -66.5q0 -24 8.5 -38t22.5 -14q32 0 59 46v132zM171 660h96l-72 -80h-70z" />
    <glyph glyph-name="agrave" unicode="&#xe0;" horiz-adv-x="346" 
d="M222 0q-2 9 -2.5 15.5t-1.5 12t-1.5 12t-1.5 16.5q-54 -63 -104 -63q-37 0 -59 32t-22 86q0 32 8 57.5t28.5 49.5t56 48.5t90.5 55.5v32q0 41 -7.5 54.5t-29.5 13.5q-21 0 -30.5 -15.5t-11.5 -52.5h-92q5 72 42 111t100 39q31 0 55.5 -11t38.5 -32q15 -20 20 -43.5
t5 -73.5v-164q0 -43 0.5 -69.5t1 -45t2.5 -32.5t5 -33h-90zM213 253q-49 -31 -69.5 -59.5t-20.5 -66.5q0 -24 8.5 -38t22.5 -14q32 0 59 46v132zM144 580l-72 80h97l45 -80h-70z" />
    <glyph glyph-name="acircumflex" unicode="&#xe2;" horiz-adv-x="346" 
d="M222 0q-2 9 -2.5 15.5t-1.5 12t-1.5 12t-1.5 16.5q-54 -63 -104 -63q-37 0 -59 32t-22 86q0 32 8 57.5t28.5 49.5t56 48.5t90.5 55.5v32q0 41 -7.5 54.5t-29.5 13.5q-21 0 -30.5 -15.5t-11.5 -52.5h-92q5 72 42 111t100 39q31 0 55.5 -11t38.5 -32q15 -20 20 -43.5
t5 -73.5v-164q0 -43 0.5 -69.5t1 -45t2.5 -32.5t5 -33h-90zM213 253q-49 -31 -69.5 -59.5t-20.5 -66.5q0 -24 8.5 -38t22.5 -14q32 0 59 46v132zM223 660l58 -80h-80l-28 31l-29 -31h-80l58 80h101z" />
    <glyph glyph-name="atilde" unicode="&#xe3;" horiz-adv-x="346" 
d="M222 0q-2 9 -2.5 15.5t-1.5 12t-1.5 12t-1.5 16.5q-54 -63 -104 -63q-37 0 -59 32t-22 86q0 32 8 57.5t28.5 49.5t56 48.5t90.5 55.5v32q0 41 -7.5 54.5t-29.5 13.5q-21 0 -30.5 -15.5t-11.5 -52.5h-92q5 72 42 111t100 39q31 0 55.5 -11t38.5 -32q15 -20 20 -43.5
t5 -73.5v-164q0 -43 0.5 -69.5t1 -45t2.5 -32.5t5 -33h-90zM213 253q-49 -31 -69.5 -59.5t-20.5 -66.5q0 -24 8.5 -38t22.5 -14q32 0 59 46v132zM76 650q15 8 27 11.5t28 3.5q12 0 21 -1.5t22 -6.5q20 -8 28.5 -10t19.5 -2t20.5 3t26.5 14v-69q-18 -11 -26.5 -14t-19.5 -3
t-20 2t-29 10q-13 5 -22 6.5t-20 1.5q-17 0 -29 -3.5t-27 -12.5v70z" />
    <glyph glyph-name="aring" unicode="&#xe5;" horiz-adv-x="346" 
d="M222 0q-2 9 -2.5 15.5t-1.5 12t-1.5 12t-1.5 16.5q-54 -63 -104 -63q-37 0 -59 32t-22 86q0 32 8 57.5t28.5 49.5t56 48.5t90.5 55.5v32q0 41 -7.5 54.5t-29.5 13.5q-21 0 -30.5 -15.5t-11.5 -52.5h-92q5 72 42 111t100 39q31 0 55.5 -11t38.5 -32q15 -20 20 -43.5
t5 -73.5v-164q0 -43 0.5 -69.5t1 -45t2.5 -32.5t5 -33h-90zM213 253q-49 -31 -69.5 -59.5t-20.5 -66.5q0 -24 8.5 -38t22.5 -14q32 0 59 46v132zM171 698q30 0 51.5 -20t21.5 -49t-21.5 -49.5t-51.5 -20.5q-31 0 -52.5 20.5t-21.5 49.5t21.5 49t52.5 20zM170 663
q-14 0 -25 -10t-11 -24t10.5 -24.5t26.5 -10.5q15 0 25.5 10.5t10.5 24.5t-10.5 24t-26.5 10z" />
    <glyph glyph-name="edieresis" unicode="&#xeb;" horiz-adv-x="340" 
d="M125 232v-88q0 -69 44 -69q42 0 43 56v25l1 16h91v-23q0 -41 -5 -62t-18 -40q-18 -26 -47 -40t-62 -14q-32 0 -61.5 14t-46.5 37q-16 21 -22.5 48t-6.5 70v173q0 44 6.5 70.5t21.5 47.5q17 23 46 37t61 14t60 -13.5t46 -37.5q15 -21 21.5 -47.5t6.5 -70.5v-103h-179z
M214 353q0 36 -10.5 52.5t-33.5 16.5q-45 0 -45 -69v-46h89v46zM143 578h-87v89h87v-89zM283 578h-87v89h87v-89z" />
    <glyph glyph-name="eacute" unicode="&#xe9;" horiz-adv-x="340" 
d="M125 232v-88q0 -69 44 -69q42 0 43 56v25l1 16h91v-23q0 -41 -5 -62t-18 -40q-18 -26 -47 -40t-62 -14q-32 0 -61.5 14t-46.5 37q-16 21 -22.5 48t-6.5 70v173q0 44 6.5 70.5t21.5 47.5q17 23 46 37t61 14t60 -13.5t46 -37.5q15 -21 21.5 -47.5t6.5 -70.5v-103h-179z
M214 353q0 36 -10.5 52.5t-33.5 16.5q-45 0 -45 -69v-46h89v46zM168 660h96l-72 -80h-70z" />
    <glyph glyph-name="egrave" unicode="&#xe8;" horiz-adv-x="340" 
d="M125 232v-88q0 -69 44 -69q42 0 43 56v25l1 16h91v-23q0 -41 -5 -62t-18 -40q-18 -26 -47 -40t-62 -14q-32 0 -61.5 14t-46.5 37q-16 21 -22.5 48t-6.5 70v173q0 44 6.5 70.5t21.5 47.5q17 23 46 37t61 14t60 -13.5t46 -37.5q15 -21 21.5 -47.5t6.5 -70.5v-103h-179z
M214 353q0 36 -10.5 52.5t-33.5 16.5q-45 0 -45 -69v-46h89v46zM141 580l-72 80h97l45 -80h-70z" />
    <glyph glyph-name="ecircumflex" unicode="&#xea;" horiz-adv-x="340" 
d="M125 232v-88q0 -69 44 -69q42 0 43 56v25l1 16h91v-23q0 -41 -5 -62t-18 -40q-18 -26 -47 -40t-62 -14q-32 0 -61.5 14t-46.5 37q-16 21 -22.5 48t-6.5 70v173q0 44 6.5 70.5t21.5 47.5q17 23 46 37t61 14t60 -13.5t46 -37.5q15 -21 21.5 -47.5t6.5 -70.5v-103h-179z
M214 353q0 36 -10.5 52.5t-33.5 16.5q-45 0 -45 -69v-46h89v46zM220 660l58 -80h-80l-28 31l-29 -31h-80l58 80h101z" />
    <glyph glyph-name="idieresis" unicode="&#xef;" horiz-adv-x="167" 
d="M129 0h-90v497h90v-497zM64 578h-87v89h87v-89zM190 578h-87v89h87v-89z" />
    <glyph glyph-name="iacute" unicode="&#xed;" horiz-adv-x="167" 
d="M129 0h-90v497h90v-497zM82 660h96l-72 -80h-70z" />
    <glyph glyph-name="igrave" unicode="&#xec;" horiz-adv-x="167" 
d="M128 0h-90v497h90v-497zM54 580l-72 80h97l45 -80h-70z" />
    <glyph glyph-name="icircumflex" unicode="&#xee;" horiz-adv-x="167" 
d="M129 0h-90v497h90v-497zM134 660l58 -80h-80l-28 31l-29 -31h-80l58 80h101z" />
    <glyph glyph-name="ntilde" unicode="&#xf1;" horiz-adv-x="337" 
d="M129 443q31 34 53.5 47.5t49.5 13.5q33 0 50 -23q10 -14 13 -32t3 -62v-387h-90v366q0 22 -0.5 29t-2.5 12q-3 15 -19 15q-27 0 -57 -42v-380h-90v497h90v-54zM72 650q15 8 27 11.5t28 3.5q12 0 21 -1.5t22 -6.5q20 -8 28.5 -10t19.5 -2t20.5 3t26.5 14v-69
q-18 -11 -26.5 -14t-19.5 -3t-20 2t-29 10q-13 5 -22 6.5t-20 1.5q-17 0 -29 -3.5t-27 -12.5v70z" />
    <glyph glyph-name="odieresis" unicode="&#xf6;" horiz-adv-x="336" 
d="M301 162q0 -44 -6.5 -70.5t-21.5 -47.5q-17 -23 -45 -37t-60 -14t-60 14t-45 37q-15 21 -21.5 47.5t-6.5 70.5v173q0 44 6.5 70.5t21.5 47.5q17 23 45 37t60 14t60 -14t45 -37q15 -21 21.5 -47.5t6.5 -70.5v-173zM125 144q0 -36 10 -52.5t33 -16.5t33 16.5t10 52.5v209
q0 36 -10 52.5t-33 16.5t-33 -16.5t-10 -52.5v-209zM142 578h-87v89h87v-89zM282 578h-87v89h87v-89z" />
    <glyph glyph-name="oacute" unicode="&#xf3;" horiz-adv-x="336" 
d="M301 162q0 -44 -6.5 -70.5t-21.5 -47.5q-17 -23 -45 -37t-60 -14t-60 14t-45 37q-15 21 -21.5 47.5t-6.5 70.5v173q0 44 6.5 70.5t21.5 47.5q17 23 45 37t60 14t60 -14t45 -37q15 -21 21.5 -47.5t6.5 -70.5v-173zM125 144q0 -36 10 -52.5t33 -16.5t33 16.5t10 52.5v209
q0 36 -10 52.5t-33 16.5t-33 -16.5t-10 -52.5v-209zM166 660h96l-72 -80h-70z" />
    <glyph glyph-name="ograve" unicode="&#xf2;" horiz-adv-x="336" 
d="M301 162q0 -44 -6.5 -70.5t-21.5 -47.5q-17 -23 -45 -37t-60 -14t-60 14t-45 37q-15 21 -21.5 47.5t-6.5 70.5v173q0 44 6.5 70.5t21.5 47.5q17 23 45 37t60 14t60 -14t45 -37q15 -21 21.5 -47.5t6.5 -70.5v-173zM125 144q0 -36 10 -52.5t33 -16.5t33 16.5t10 52.5v209
q0 36 -10 52.5t-33 16.5t-33 -16.5t-10 -52.5v-209zM139 580l-72 80h97l45 -80h-70z" />
    <glyph glyph-name="ocircumflex" unicode="&#xf4;" horiz-adv-x="336" 
d="M301 162q0 -44 -6.5 -70.5t-21.5 -47.5q-17 -23 -45 -37t-60 -14t-60 14t-45 37q-15 21 -21.5 47.5t-6.5 70.5v173q0 44 6.5 70.5t21.5 47.5q17 23 45 37t60 14t60 -14t45 -37q15 -21 21.5 -47.5t6.5 -70.5v-173zM125 144q0 -36 10 -52.5t33 -16.5t33 16.5t10 52.5v209
q0 36 -10 52.5t-33 16.5t-33 -16.5t-10 -52.5v-209zM218 660l58 -80h-80l-28 31l-29 -31h-80l58 80h101z" />
    <glyph glyph-name="otilde" unicode="&#xf5;" horiz-adv-x="336" 
d="M301 162q0 -44 -6.5 -70.5t-21.5 -47.5q-17 -23 -45 -37t-60 -14t-60 14t-45 37q-15 21 -21.5 47.5t-6.5 70.5v173q0 44 6.5 70.5t21.5 47.5q17 23 45 37t60 14t60 -14t45 -37q15 -21 21.5 -47.5t6.5 -70.5v-173zM125 144q0 -36 10 -52.5t33 -16.5t33 16.5t10 52.5v209
q0 36 -10 52.5t-33 16.5t-33 -16.5t-10 -52.5v-209zM71 650q15 8 27 11.5t28 3.5q12 0 21 -1.5t22 -6.5q20 -8 28.5 -10t19.5 -2t20.5 3t26.5 14v-69q-18 -11 -26.5 -14t-19.5 -3t-20 2t-29 10q-13 5 -22 6.5t-20 1.5q-17 0 -29 -3.5t-27 -12.5v70z" />
    <glyph glyph-name="scaron" unicode="&#x161;" horiz-adv-x="313" 
d="M206 360q-7 35 -18 48.5t-32 13.5q-19 0 -30.5 -12t-11.5 -32q0 -11 3 -19.5t10.5 -18.5t20 -21t32.5 -26q36 -27 58.5 -47.5t35.5 -39.5t17.5 -38t4.5 -44q0 -60 -36.5 -95.5t-99.5 -35.5q-123 0 -145 143l85 20q9 -45 23 -63t39 -18q20 0 32 12.5t12 34.5q0 11 -2.5 20
t-9.5 18t-19 20t-31 25q-36 27 -59 48t-36.5 40.5t-19 39t-5.5 42.5q0 58 37 93.5t98 35.5q114 0 133 -124zM106 580l-58 80h80l29 -31l28 31h80l-58 -80h-101z" />
    <glyph glyph-name="udieresis" unicode="&#xfc;" horiz-adv-x="337" 
d="M298 0h-90v54q-16 -17 -29 -29t-25 -19t-24 -10t-25 -3q-33 0 -50 23q-10 14 -13 32t-3 62v387h90v-366q0 -22 0.5 -29t2.5 -12q3 -15 19 -15q27 0 57 42v380h90v-497zM142 578h-87v89h87v-89zM282 578h-87v89h87v-89z" />
    <glyph glyph-name="uacute" unicode="&#xfa;" horiz-adv-x="337" 
d="M298 0h-90v54q-16 -17 -29 -29t-25 -19t-24 -10t-25 -3q-33 0 -50 23q-10 14 -13 32t-3 62v387h90v-366q0 -22 0.5 -29t2.5 -12q3 -15 19 -15q27 0 57 42v380h90v-497zM167 660h96l-72 -80h-70z" />
    <glyph glyph-name="ugrave" unicode="&#xf9;" horiz-adv-x="337" 
d="M298 0h-90v54q-16 -17 -29 -29t-25 -19t-24 -10t-25 -3q-33 0 -50 23q-10 14 -13 32t-3 62v387h90v-366q0 -22 0.5 -29t2.5 -12q3 -15 19 -15q27 0 57 42v380h90v-497zM140 580l-72 80h97l45 -80h-70z" />
    <glyph glyph-name="ucircumflex" unicode="&#xfb;" horiz-adv-x="337" 
d="M298 0h-90v54q-16 -17 -29 -29t-25 -19t-24 -10t-25 -3q-33 0 -50 23q-10 14 -13 32t-3 62v387h90v-366q0 -22 0.5 -29t2.5 -12q3 -15 19 -15q27 0 57 42v380h90v-497zM219 660l58 -80h-80l-28 31l-29 -31h-80l58 80h101z" />
    <glyph glyph-name="yacute" unicode="&#xfd;" horiz-adv-x="320" 
d="M303 497l-101 -510q-7 -35 -12 -56.5t-9.5 -34.5t-9.5 -21t-13 -17q-31 -35 -103 -35q-10 0 -16 0.5t-16 2.5v88q5 -1 10.5 -1h9.5q42 0 60 33q4 8 7 17t8 31l-101 503h90l54 -320l53 320h89zM159 660h96l-72 -80h-70z" />
    <glyph glyph-name="zcaron" horiz-adv-x="309" 
d="M278 0h-251v77l152 338h-139v82h238v-82l-148 -333h148v-82zM103 580l-58 80h80l29 -31l28 31h80l-58 -80h-101z" />
    <glyph glyph-name="ydieresis" unicode="&#xff;" horiz-adv-x="320" 
d="M303 497l-101 -510q-7 -35 -12 -56.5t-9.5 -34.5t-9.5 -21t-13 -17q-31 -35 -103 -35q-10 0 -16 0.5t-16 2.5v88q5 -1 10.5 -1h9.5q42 0 60 33q4 8 7 17t8 31l-101 503h90l54 -320l53 320h89zM134 578h-87v89h87v-89zM274 578h-87v89h87v-89z" />
    <glyph glyph-name="A" unicode="A" horiz-adv-x="405" 
d="M149 147l-23 -147h-99l109 667h130l116 -667h-103l-23 147h-107zM201 506l-38 -266h78z" />
    <glyph glyph-name="B" unicode="B" horiz-adv-x="401" 
d="M45 667h139q166 0 166 -172q0 -54 -16 -88.5t-54 -61.5q44 -22 63 -61t19 -105q0 -100 -49 -146q-20 -19 -45.5 -26t-74.5 -7h-148v667zM166 391q46 0 66 23t20 76q0 84 -69 84h-38v-183h21zM182 93q42 0 61 22.5t19 74.5q0 67 -32 93q-10 8 -23.5 11.5t-36.5 3.5h-25
v-205h37z" />
    <glyph glyph-name="C" unicode="C" horiz-adv-x="388" 
d="M254 446q0 29 -0.5 51t-1.5 34q-3 24 -17.5 38.5t-36.5 14.5q-41 0 -52 -46q-4 -17 -4 -99v-212q0 -50 1.5 -73.5t5.5 -34.5q14 -36 49 -36q22 0 36.5 15t16.5 41q2 14 2.5 44t0.5 53h101v-44q0 -23 -1 -40.5t-3.5 -32t-7 -26.5t-11.5 -25q-19 -37 -53.5 -57.5
t-79.5 -20.5q-35 0 -66 13.5t-51 39.5q-12 15 -20 30t-12.5 34.5t-6 46.5t-1.5 66v226q0 39 1.5 66.5t6 47t12.5 34.5t20 30q20 26 51 39.5t66 13.5q44 0 78.5 -19t54.5 -54q13 -24 18 -48.5t5 -68.5v-41h-101z" />
    <glyph glyph-name="D" unicode="D" horiz-adv-x="397" 
d="M45 667h142q87 0 128 -45.5t41 -142.5v-291q0 -97 -41 -142.5t-128 -45.5h-142v667zM176 93q43 0 63 26q10 14 13.5 32t3.5 56v253q0 38 -3.5 56t-13.5 32q-20 26 -63 26h-31v-481h31z" />
    <glyph glyph-name="E" unicode="E" horiz-adv-x="348" 
d="M317 574h-172v-182h124v-93h-124v-206h172v-93h-272v667h272v-93z" />
    <glyph glyph-name="F" unicode="F" horiz-adv-x="330" 
d="M314 574h-169v-182h123v-93h-123v-299h-100v667h269v-93z" />
    <glyph glyph-name="G" unicode="G" horiz-adv-x="399" 
d="M355 0h-49l-19 53q-21 -35 -44.5 -49t-60.5 -14q-36 0 -64.5 15t-45.5 42q-17 29 -23.5 66t-6.5 100v233q0 39 1.5 66t6 47t12.5 35t20 30q20 26 51 39.5t66 13.5q57 0 97.5 -31.5t52.5 -86.5q2 -8 3 -15.5t2 -19t1 -29v-46.5h-101q0 30 -0.5 50t-1.5 31
q-3 24 -17.5 38.5t-36.5 14.5q-41 0 -52 -46q-2 -9 -3 -34.5t-1 -63.5v-211q0 -40 2 -69t6 -39q5 -17 18.5 -26.5t30.5 -9.5q20 0 33 12t18 33q3 11 4 35.5t1 63.5v27h-61v83h161v-338z" />
    <glyph glyph-name="H" unicode="H" horiz-adv-x="400" 
d="M145 301v-301h-100v667h100v-273h111v273h100v-667h-100v301h-111z" />
    <glyph glyph-name="I" unicode="I" horiz-adv-x="189" 
d="M145 0h-100v667h100v-667z" />
    <glyph glyph-name="J" unicode="J" horiz-adv-x="231" 
d="M186 667v-457q0 -36 -1.5 -61.5t-4.5 -44.5t-8.5 -33.5t-13.5 -26.5q-29 -44 -100 -44h-48v93h24q30 0 41 21.5t11 79.5v473h100z" />
    <glyph glyph-name="K" unicode="K" horiz-adv-x="399" 
d="M145 667v-267l118 267h105l-115 -232l130 -435h-107l-85 310l-46 -92v-218h-100v667h100z" />
    <glyph glyph-name="L" unicode="L" horiz-adv-x="324" 
d="M311 0h-266v667h100v-574h166v-93z" />
    <glyph glyph-name="M" unicode="M" horiz-adv-x="517" 
d="M380 0v461l-96 -461h-45l-101 461v-461h-93v667h134l83 -406l76 406h135v-667h-93z" />
    <glyph glyph-name="N" unicode="N" horiz-adv-x="420" 
d="M283 0l-145 412v-412h-93v667h101l137 -396v396h93v-667h-93z" />
    <glyph glyph-name="O" unicode="O" horiz-adv-x="397" 
d="M355 217q0 -37 -2 -63.5t-6.5 -46t-12 -34.5t-19.5 -30q-20 -25 -51 -39t-66 -14t-65.5 14t-50.5 39q-12 15 -20 30t-12.5 35t-6 46t-1.5 63v233q0 37 1.5 63t6 46t12.5 35t20 30q20 25 50.5 39t65.5 14t66 -14t51 -39q12 -15 19.5 -30t12 -34.5t6.5 -46t2 -63.5v-233z
M142 228q0 -50 1.5 -74t5.5 -35q14 -36 50 -36q41 0 52 46q4 17 4 99v211q0 51 -1.5 74.5t-5.5 34.5q-14 36 -49 36q-42 0 -53 -46q-2 -9 -3 -35t-1 -64v-211z" />
    <glyph glyph-name="P" unicode="P" horiz-adv-x="386" 
d="M145 0h-100v667h140q48 0 81 -10t53.5 -33.5t29.5 -60.5t9 -91t-9 -91.5t-29.5 -61t-53.5 -33.5t-81 -10h-40v-276zM177 369q24 0 40 4.5t25 16t12.5 31.5t3.5 51q0 30 -3.5 50t-12.5 31.5t-25 16t-40 4.5h-32v-205h32z" />
    <glyph glyph-name="Q" unicode="Q" horiz-adv-x="397" 
d="M376 -51q-44 1 -69 13.5t-42 41.5q-18 -8 -33 -11t-33 -3q-35 0 -66 13.5t-51 39.5q-12 15 -20 30t-12.5 35t-6 46t-1.5 63v233q0 37 1.5 63t6 46t12.5 35t20 30q20 25 50.5 39t65.5 14t66 -14t51 -39q12 -15 19.5 -30t12 -34.5t6.5 -46t2 -63.5v-233q0 -31 -1 -53.5
t-3.5 -39.5t-7 -30t-10.5 -25q8 -10 17 -14.5t26 -6.5v-99zM142 228q0 -50 1.5 -74t5.5 -35q14 -36 50 -36q41 0 52 46q4 17 4 99v211q0 51 -1.5 74.5t-5.5 34.5q-14 36 -49 36q-42 0 -53 -46q-2 -9 -3 -35t-1 -64v-211z" />
    <glyph glyph-name="R" unicode="R" horiz-adv-x="389" 
d="M145 0h-100v667h140q87 0 127 -46.5t40 -146.5q0 -65 -15 -103t-52 -65l77 -306h-106l-63 279h-48v-279zM177 372q28 0 41 5.5t21 22.5q13 28 13 73t-13 73q-8 17 -21 22.5t-41 5.5h-32v-202h32z" />
    <glyph glyph-name="S" unicode="S" horiz-adv-x="371" 
d="M243 503q-5 45 -17.5 63t-40.5 18q-26 0 -41 -18t-15 -48q0 -17 4 -31.5t14 -30.5t27 -34t44 -43q39 -36 64 -63t39.5 -51.5t20 -49t5.5 -54.5q0 -38 -11.5 -69.5t-32.5 -54t-50 -35t-64 -12.5q-37 0 -67 13t-51.5 36.5t-34 56.5t-13.5 74l95 17q4 -104 71 -104
q28 0 44.5 20t16.5 53q0 37 -26 72q-6 8 -11 14t-13 14l-20.5 20l-33.5 31q-32 29 -53.5 54.5t-35 49.5t-19.5 48.5t-6 52.5q0 75 42.5 120t114.5 45q133 0 151 -160z" />
    <glyph glyph-name="T" unicode="T" horiz-adv-x="328" 
d="M213 0h-100v574h-106v93h314v-93h-108v-574z" />
    <glyph glyph-name="U" unicode="U" horiz-adv-x="403" 
d="M358 667v-450q0 -37 -2 -63.5t-6.5 -46t-12 -34.5t-19.5 -30q-20 -25 -51 -39t-66 -14t-65.5 14t-50.5 39q-12 15 -20 30t-12.5 35t-6 46t-1.5 63v450h100v-439q0 -50 1.5 -74t5.5 -35q14 -36 50 -36q41 0 52 46q4 17 4 99v439h100z" />
    <glyph glyph-name="V" unicode="V" horiz-adv-x="379" 
d="M145 0l-128 667h102l77 -427l68 427h99l-114 -667h-104z" />
    <glyph glyph-name="W" unicode="W" horiz-adv-x="550" 
d="M342 0l-69 404l-66 -404h-87l-100 667h100l50 -399l63 399h83l66 -399l51 399h97l-101 -667h-87z" />
    <glyph glyph-name="X" unicode="X" horiz-adv-x="394" 
d="M377 0h-105l-78 215l-74 -215h-103l126 343l-121 324h105l69 -197l65 197h104l-117 -324z" />
    <glyph glyph-name="Y" unicode="Y" horiz-adv-x="372" 
d="M238 0h-100v270l-125 397h104l71 -262l69 262h101l-120 -397v-270z" />
    <glyph glyph-name="Z" unicode="Z" horiz-adv-x="352" 
d="M326 0h-299v93l193 481h-178v93h284v-93l-192 -481h192v-93z" />
    <glyph glyph-name="AE" unicode="&#xc6;" horiz-adv-x="576" 
d="M165 147l-44 -147h-104l207 667h321v-93h-173v-182h124v-93h-124v-206h173v-93h-273v147h-107zM272 506l-79 -266h79v266z" />
    <glyph glyph-name="OE" unicode="&#x152;" horiz-adv-x="558" 
d="M526 574h-172v-182h123v-93h-123v-206h172v-93h-314q-87 0 -128 45.5t-41 142.5v290q0 97 41 143t128 46h314v-93zM254 574h-31q-45 0 -62.5 -22.5t-17.5 -78.5v-280q0 -56 17.5 -78t62.5 -22h31v481z" />
    <glyph glyph-name="Oslash" unicode="&#xd8;" horiz-adv-x="397" 
d="M353 678l-27 -68q9 -14 15 -28.5t9 -32.5t4.5 -41.5t1.5 -57.5v-233q0 -37 -2 -63t-6.5 -46t-12 -35t-19.5 -30q-20 -25 -50.5 -39t-65.5 -14q-56 0 -100 34l-14 -36h-53l31 82q-6 12 -10.5 25.5t-7 30t-3.5 39t-1 52.5v233q0 37 1.5 63t6 46t12.5 35t20 30
q20 25 50.5 38.5t66.5 13.5q50 0 90 -26l11 28h53zM249 547q-15 36 -50 36q-42 0 -53 -46q-1 -5 -1.5 -9.5t-1 -14.5t-1 -27t-0.5 -47v-167zM145 140q3 -27 17 -41.5t37 -14.5q42 0 53 46q4 16 4 98v199z" />
    <glyph glyph-name="Ccedilla" unicode="&#xc7;" horiz-adv-x="388" 
d="M254 446q0 29 -0.5 51t-1.5 34q-3 24 -17.5 38.5t-36.5 14.5q-41 0 -52 -46q-4 -17 -4 -99v-212q0 -50 1.5 -73.5t5.5 -34.5q14 -36 49 -36q22 0 36.5 15t16.5 41q2 14 2.5 44t0.5 53h101v-44q0 -23 -1 -40.5t-3.5 -32t-7 -26.5t-11.5 -25q-19 -37 -53.5 -57.5
t-79.5 -20.5q-35 0 -66 13.5t-51 39.5q-12 15 -20 30t-12.5 34.5t-6 46.5t-1.5 66v226q0 39 1.5 66.5t6 47t12.5 34.5t20 30q20 26 51 39.5t66 13.5q44 0 78.5 -19t54.5 -54q13 -24 18 -48.5t5 -68.5v-41h-101zM238 -114l-22 -56h-47l17 56h-27v68h79v-68z" />
    <glyph glyph-name="Eth" unicode="&#xd0;" horiz-adv-x="397" 
d="M44 299h-33v93h33v275h142q87 0 128 -46t41 -143v-290q0 -97 -41 -142.5t-128 -45.5h-142v299zM175 93q43 0 63 26q10 14 13.5 32t3.5 56v253q0 38 -3.5 56t-13.5 32q-20 26 -63 26h-31v-182h57v-93h-57v-206h31z" />
    <glyph glyph-name="Lslash" horiz-adv-x="331" 
d="M25 259v101l27 20v287h100v-223l56 43v-101l-56 -43v-250h166v-93h-266v279z" />
    <glyph glyph-name="Thorn" unicode="&#xde;" horiz-adv-x="391" 
d="M145 0h-100v667h100v-114h40q48 0 81 -10t53.5 -33.5t29.5 -60.5t9 -91t-9 -91.5t-29.5 -61t-53.5 -33.5t-81 -10h-40v-162zM177 255q24 0 40 4.5t25 16t12.5 31.5t3.5 51q0 30 -3.5 50t-12.5 31.5t-25 16t-40 4.5h-32v-205h32z" />
    <glyph glyph-name="a" unicode="a" horiz-adv-x="346" 
d="M222 0q-2 9 -2.5 15.5t-1.5 12t-1.5 12t-1.5 16.5q-54 -63 -104 -63q-37 0 -59 32t-22 86q0 32 8 57.5t28.5 49.5t56 48.5t90.5 55.5v32q0 41 -7.5 54.5t-29.5 13.5q-21 0 -30.5 -15.5t-11.5 -52.5h-92q5 72 42 111t100 39q31 0 55.5 -11t38.5 -32q15 -20 20 -43.5
t5 -73.5v-164q0 -43 0.5 -69.5t1 -45t2.5 -32.5t5 -33h-90zM213 253q-49 -31 -69.5 -59.5t-20.5 -66.5q0 -24 8.5 -38t22.5 -14q32 0 59 46v132z" />
    <glyph glyph-name="b" unicode="b" horiz-adv-x="338" 
d="M129 449q25 30 46 42.5t47 12.5q45 0 65 -40q5 -10 8 -20t5 -23t2.5 -30.5t0.5 -42.5v-199q0 -25 -0.5 -42.5t-2.5 -30.5t-5 -23t-8 -20q-20 -40 -65 -40q-26 0 -47 12.5t-46 42.5v-48h-90v667h90v-218zM129 97q23 -22 45 -22q24 0 32 18q5 9 6 19t1 36v201q0 26 -1 36.5
t-6 18.5q-8 18 -32 18q-22 0 -45 -22v-303z" />
    <glyph glyph-name="c" unicode="c" horiz-adv-x="326" 
d="M210 325v40.5t-2 19.5q-5 37 -40 37q-23 0 -33 -16.5t-10 -52.5v-209q0 -69 43 -69q38 0 41 51q1 5 1 19.5v35.5h90v-23q0 -22 -1 -37.5t-3.5 -28t-7 -23t-10.5 -20.5q-17 -26 -45.5 -41t-61.5 -15q-32 0 -61 14t-47 37q-15 21 -21.5 47.5t-6.5 69.5v174q0 44 6.5 70.5
t21.5 47.5q18 23 47.5 37t61.5 14q44 0 77.5 -24t44.5 -65q4 -14 5 -31.5t1 -58.5h-90z" />
    <glyph glyph-name="d" unicode="d" horiz-adv-x="338" 
d="M299 667v-667h-90v48q-25 -30 -46 -42.5t-47 -12.5q-45 0 -65 40q-5 10 -8 20t-5 23t-2.5 30.5t-0.5 42.5v199q0 25 0.5 42.5t2.5 30.5t5 23t8 20q20 40 65 40q26 0 47 -12.5t46 -42.5v218h90zM209 400q-23 22 -45 22q-24 0 -32 -18q-5 -8 -6 -18.5t-1 -36.5v-201
q0 -26 1 -36t6 -19q8 -18 32 -18q22 0 45 22v303z" />
    <glyph glyph-name="e" unicode="e" horiz-adv-x="340" 
d="M125 232v-88q0 -69 44 -69q42 0 43 56v25l1 16h91v-23q0 -41 -5 -62t-18 -40q-18 -26 -47 -40t-62 -14q-32 0 -61.5 14t-46.5 37q-16 21 -22.5 48t-6.5 70v173q0 44 6.5 70.5t21.5 47.5q17 23 46 37t61 14t60 -13.5t46 -37.5q15 -21 21.5 -47.5t6.5 -70.5v-103h-179z
M214 353q0 36 -10.5 52.5t-33.5 16.5q-45 0 -45 -69v-46h89v46z" />
    <glyph glyph-name="f" unicode="f" horiz-adv-x="224" 
d="M211 415h-58v-415h-90v415h-56v82h56v57q0 36 4.5 54t17.5 32q31 34 86 34q26 0 50 -7v-77q-10 2 -15 2h-10q-24 0 -33.5 -14t-9.5 -49v-32h58v-82z" />
    <glyph glyph-name="g" unicode="g" horiz-adv-x="339" 
d="M333 425q-34 0 -54 -20q1 -6 1.5 -10t0.5 -9.5v-13v-19.5v-84q0 -36 -5.5 -58t-19.5 -41q-33 -44 -95 -44h-10t-14 1q-21 -17 -21 -34q0 -12 12 -17.5t43 -7.5q30 -2 51 -4t35.5 -5t24 -7.5t18.5 -11.5q38 -29 38 -86q0 -63 -45 -97t-131 -34q-72 0 -111.5 22.5
t-39.5 64.5q0 27 17 45t64 41q-30 13 -43.5 27.5t-13.5 36.5q0 39 57 81q-32 23 -44.5 50.5t-12.5 77.5v92q0 143 126 143q35 0 59 -13t44 -43q26 50 69 53v-76zM117 266q0 -33 9.5 -48t31.5 -15t31.5 15t9.5 48v97q0 34 -9.5 49t-31.5 15t-31.5 -15t-9.5 -49v-97zM144 -13
q-38 -18 -38 -47q0 -21 19 -34t50 -13q38 0 60.5 14t22.5 37q0 18 -11 26.5t-39 11.5q-5 1 -17.5 2t-46.5 3z" />
    <glyph glyph-name="h" unicode="h" horiz-adv-x="337" 
d="M129 443q31 34 53.5 47.5t49.5 13.5q33 0 50 -23q10 -14 13 -32t3 -62v-387h-90v366q0 22 -0.5 29t-2.5 12q-3 15 -19 15q-27 0 -57 -42v-380h-90v667h90v-224z" />
    <glyph glyph-name="i" unicode="i" horiz-adv-x="167" 
d="M129 0h-90v497h90v-497zM129 577h-90v90h90v-90z" />
    <glyph glyph-name="j" unicode="j" horiz-adv-x="175" 
d="M136 497v-510q0 -26 -0.5 -44t-2.5 -30.5t-5.5 -22t-9.5 -18.5q-11 -20 -35 -31t-53 -11q-12 0 -22.5 1.5t-24.5 4.5v87q8 -2 12 -2.5t9 -0.5q23 0 32.5 13t9.5 43v521h90zM136 577h-90v90h90v-90z" />
    <glyph glyph-name="k" unicode="k" horiz-adv-x="338" 
d="M129 306l92 191h91l-90 -166l98 -331h-88l-63 231l-40 -72v-159h-90v667h90v-361z" />
    <glyph glyph-name="l" unicode="l" horiz-adv-x="167" 
d="M129 0h-90v667h90v-667z" />
    <glyph glyph-name="m" unicode="m" horiz-adv-x="506" 
d="M129 443q31 34 53.5 47.5t49.5 13.5q55 0 64 -61q32 35 55 48t51 13q33 0 50 -23q10 -14 13 -32t3 -62v-387h-90v366q0 22 -0.5 29t-2.5 12q-3 15 -19 15q-28 0 -58 -42v-380h-90v366q0 22 -0.5 29t-2.5 12q-3 15 -19 15q-27 0 -57 -42v-380h-90v497h90v-54z" />
    <glyph glyph-name="n" unicode="n" horiz-adv-x="337" 
d="M129 443q31 34 53.5 47.5t49.5 13.5q33 0 50 -23q10 -14 13 -32t3 -62v-387h-90v366q0 22 -0.5 29t-2.5 12q-3 15 -19 15q-27 0 -57 -42v-380h-90v497h90v-54z" />
    <glyph glyph-name="o" unicode="o" horiz-adv-x="336" 
d="M301 162q0 -44 -6.5 -70.5t-21.5 -47.5q-17 -23 -45 -37t-60 -14t-60 14t-45 37q-15 21 -21.5 47.5t-6.5 70.5v173q0 44 6.5 70.5t21.5 47.5q17 23 45 37t60 14t60 -14t45 -37q15 -21 21.5 -47.5t6.5 -70.5v-173zM125 144q0 -36 10 -52.5t33 -16.5t33 16.5t10 52.5v209
q0 36 -10 52.5t-33 16.5t-33 -16.5t-10 -52.5v-209z" />
    <glyph glyph-name="p" unicode="p" horiz-adv-x="338" 
d="M129 497v-48q25 30 46 42.5t47 12.5q45 0 65 -40q5 -10 8 -20t5 -23t2.5 -30.5t0.5 -42.5v-199q0 -25 -0.5 -42.5t-2.5 -30.5t-5 -23t-8 -20q-20 -40 -65 -40q-26 0 -47 12.5t-46 42.5v-218h-90v667h90zM129 97q23 -22 45 -22q24 0 32 18q5 8 6 18.5t1 36.5v201
q0 26 -1 36t-6 19q-8 18 -32 18q-22 0 -45 -22v-303z" />
    <glyph glyph-name="q" unicode="q" horiz-adv-x="338" 
d="M299 -170h-90v218q-25 -30 -46 -42.5t-47 -12.5q-45 0 -65 40q-5 10 -8 20t-5 23t-2.5 30.5t-0.5 42.5v199q0 25 0.5 42.5t2.5 30.5t5 23t8 20q20 40 65 40q26 0 47 -12.5t46 -42.5v48h90v-667zM209 400q-23 22 -45 22q-24 0 -32 -18q-5 -9 -6 -19t-1 -36v-201
q0 -26 1 -36.5t6 -18.5q8 -18 32 -18q22 0 45 22v303z" />
    <glyph glyph-name="r" unicode="r" horiz-adv-x="236" 
d="M129 497v-71q23 41 48 58.5t60 19.5v-99q-10 3 -16.5 4t-14.5 1q-77 0 -77 -109v-301h-90v497h90z" />
    <glyph glyph-name="s" unicode="s" horiz-adv-x="313" 
d="M206 360q-7 35 -18 48.5t-32 13.5q-19 0 -30.5 -12t-11.5 -32q0 -11 3 -19.5t10.5 -18.5t20 -21t32.5 -26q36 -27 58.5 -47.5t35.5 -39.5t17.5 -38t4.5 -44q0 -60 -36.5 -95.5t-99.5 -35.5q-123 0 -145 143l85 20q9 -45 23 -63t39 -18q20 0 32 12.5t12 34.5q0 11 -2.5 20
t-9.5 18t-19 20t-31 25q-36 27 -59 48t-36.5 40.5t-19 39t-5.5 42.5q0 58 37 93.5t98 35.5q114 0 133 -124z" />
    <glyph glyph-name="t" unicode="t" horiz-adv-x="244" 
d="M235 415h-75v-247q0 -26 2 -42t7.5 -26t15 -13.5t23.5 -3.5q11 0 27 4v-85q-20 -5 -34.5 -7t-29.5 -2q-53 0 -79 37q-7 9 -11 18t-6.5 20t-3.5 26.5t-1 38.5v282h-55v82h55v136h90v-136h75v-82z" />
    <glyph glyph-name="u" unicode="u" horiz-adv-x="337" 
d="M298 0h-90v54q-16 -17 -29 -29t-25 -19t-24 -10t-25 -3q-33 0 -50 23q-10 14 -13 32t-3 62v387h90v-366q0 -22 0.5 -29t2.5 -12q3 -15 19 -15q27 0 57 42v380h90v-497z" />
    <glyph glyph-name="v" unicode="v" horiz-adv-x="314" 
d="M119 0l-106 497h92l55 -308l51 308h89l-96 -497h-85z" />
    <glyph glyph-name="w" unicode="w" horiz-adv-x="469" 
d="M288 0l-52 284l-49 -284h-79l-91 497h85l48 -290l50 290h71l54 -283l46 283h82l-85 -497h-80z" />
    <glyph glyph-name="x" unicode="x" horiz-adv-x="323" 
d="M308 0h-92l-57 157l-54 -157h-90l97 262l-97 235h95l50 -136l48 136h91l-91 -235z" />
    <glyph glyph-name="y" unicode="y" horiz-adv-x="320" 
d="M303 497l-101 -510q-7 -35 -12 -56.5t-9.5 -34.5t-9.5 -21t-13 -17q-31 -35 -103 -35q-10 0 -16 0.5t-16 2.5v88q5 -1 10.5 -1h9.5q42 0 60 33q4 8 7 17t8 31l-101 503h90l54 -320l53 320h89z" />
    <glyph glyph-name="z" unicode="z" horiz-adv-x="309" 
d="M278 0h-251v77l152 338h-139v82h238v-82l-148 -333h148v-82z" />
    <glyph glyph-name="ae" unicode="&#xe6;" horiz-adv-x="518" 
d="M303 232v-88q0 -69 45 -69q42 0 43 56v25l1 16h91v-23q0 -41 -5 -62t-18 -40q-18 -26 -47 -40t-63 -14q-76 0 -117 64q-58 -64 -112 -64q-42 0 -66.5 32t-24.5 87q0 32 8 57t28.5 48.5t56 48t90.5 56.5v32q0 41 -7.5 54.5t-29.5 13.5q-21 0 -30.5 -15.5t-11.5 -52.5h-92
q5 72 41.5 111t99.5 39q26 0 45.5 -7t36.5 -21q38 28 84 28q32 0 60 -13.5t46 -37.5q15 -21 21.5 -47.5t6.5 -70.5v-103h-180zM213 253q-25 -16 -42 -30.5t-27.5 -29t-15.5 -30.5t-5 -35q0 -25 8.5 -39t22.5 -14q32 0 59 46v132zM393 353q0 36 -11 52.5t-34 16.5t-34 -16.5
t-11 -52.5v-46h90v46z" />
    <glyph glyph-name="oe" unicode="&#x153;" horiz-adv-x="521" 
d="M306 232v-88q0 -69 44 -69q42 0 43 56v25l1 16h91v-23q0 -41 -5 -62t-18 -40q-18 -26 -47 -40t-61 -14q-50 0 -92 33q-41 -33 -89 -33q-31 0 -59.5 14t-45.5 37q-15 21 -21.5 47.5t-6.5 70.5v173q0 44 6.5 70.5t21.5 47.5q17 23 45 37t60 14q47 0 88 -33q42 33 90 33
q32 0 60 -13.5t46 -37.5q15 -21 21.5 -47.5t6.5 -70.5v-103h-179zM130 144q0 -69 43 -69q23 0 33 16.5t10 52.5v209q0 69 -43 69t-43 -69v-209zM395 353q0 36 -10.5 52.5t-33.5 16.5q-45 0 -45 -69v-46h89v46z" />
    <glyph glyph-name="oslash" unicode="&#xf8;" horiz-adv-x="336" 
d="M260 527l-13 -49q30 -22 42 -54t12 -89v-173q0 -44 -6.5 -71t-21.5 -47q-17 -23 -45.5 -37t-59.5 -14q-19 0 -41 7l-11 -42h-40l15 59q-16 12 -26.5 25t-17 30t-9.5 39t-3 51v173q0 44 6.5 70.5t21.5 47.5q17 23 45.5 37t60.5 14q12 0 21 -1.5t22 -6.5l8 31h40zM191 415
q-11 7 -22 7q-23 0 -33.5 -16.5t-10.5 -52.5v-201zM147 81q10 -6 21 -6q23 0 33 16.5t10 52.5v190z" />
    <glyph glyph-name="germandbls" unicode="&#xdf;" horiz-adv-x="342" 
d="M39 0v531q0 66 34.5 104.5t94.5 38.5q57 0 89 -32.5t32 -89.5q0 -36 -12 -57t-40 -33q19 -10 32.5 -25.5t21.5 -41t11.5 -61.5t3.5 -87q0 -63 -5 -102.5t-18 -72.5q-13 -34 -36 -53t-52 -19h-32v82h11q12 0 20.5 8t13 28.5t6.5 54.5t2 87q0 43 -2.5 71.5t-8.5 46.5
t-16.5 26.5t-25.5 10.5v82q23 2 33 12.5t10 35.5q0 47 -37 47q-22 0 -31 -15t-9 -51v-526h-90z" />
    <glyph glyph-name="dotlessi" unicode="&#xd;" horiz-adv-x="167" 
d="M129 0h-90v497h90v-497z" />
    <glyph glyph-name="fi" horiz-adv-x="362" 
d="M63 0v415h-56v82h56v57q0 46 10 69t37 37q26 14 68 14q17 0 32.5 -2t43.5 -7v-76q-21 2 -31.5 2.5t-19.5 0.5q-29 0 -39.5 -13t-10.5 -50v-32h170v-497h-90v415h-80v-415h-90z" />
    <glyph glyph-name="fl" horiz-adv-x="362" 
d="M63 0v415h-56v82h56v57q0 36 4.5 54t17.5 32q31 34 85 34h8.5t9 -0.5t14 -2t23.5 -3.5q4 -1 23 -1h75v-667h-90v590q-11 2 -17.5 2h-14.5q-28 0 -38 -13t-10 -50v-32h51v-82h-51v-415h-90z" />
    <glyph glyph-name="ccedilla" unicode="&#xe7;" horiz-adv-x="326" 
d="M210 325v40.5t-2 19.5q-5 37 -40 37q-23 0 -33 -16.5t-10 -52.5v-209q0 -69 43 -69q38 0 41 51q1 5 1 19.5v35.5h90v-23q0 -22 -1 -37.5t-3.5 -28t-7 -23t-10.5 -20.5q-17 -26 -45.5 -41t-61.5 -15q-32 0 -61 14t-47 37q-15 21 -21.5 47.5t-6.5 69.5v174q0 44 6.5 70.5
t21.5 47.5q18 23 47.5 37t61.5 14q44 0 77.5 -24t44.5 -65q4 -14 5 -31.5t1 -58.5h-90zM207 -114l-22 -56h-47l17 56h-27v68h79v-68z" />
    <glyph glyph-name="lslash" horiz-adv-x="208" 
d="M196 484v-95l-47 -35v-354h-90v295l-46 -36v94l46 36v278h90v-219z" />
    <glyph glyph-name="eth" unicode="&#xf0;" horiz-adv-x="336" 
d="M251 694l26 -30l-47 -39q71 -89 71 -244v-219q0 -44 -6.5 -70.5t-21.5 -47.5q-17 -23 -45 -37t-60 -14t-60 14t-45 37q-15 21 -21.5 47.5t-6.5 70.5v186q0 25 1 43t3 31.5t6 23.5t10 19q12 18 32.5 28.5t45.5 10.5q23 0 39.5 -9.5t36.5 -32.5q-4 36 -13 67t-21 49
l-48 -40l-26 31l51 42l-12 12t-14 13l46 45q11 -8 15.5 -12.5t15.5 -14.5zM125 144q0 -36 10 -52.5t33 -16.5t33 16.5t10 52.5v209q0 36 -10 52.5t-33 16.5t-33 -16.5t-10 -52.5v-209z" />
    <glyph glyph-name="thorn" unicode="&#xfe;" horiz-adv-x="338" 
d="M129 667v-218q25 30 46 42.5t47 12.5q45 0 65 -40q5 -10 8 -20t5 -23t2.5 -30.5t0.5 -42.5v-199q0 -25 -0.5 -42.5t-2.5 -30.5t-5 -23t-8 -20q-20 -40 -65 -40q-26 0 -47 12.5t-46 42.5v-218h-90v837h90zM129 97q23 -22 45 -22q24 0 32 18q5 8 6 18.5t1 36.5v201
q0 26 -1 36t-6 19q-8 18 -32 18q-22 0 -45 -22v-303z" />
    <glyph glyph-name="one" unicode="1" 
d="M253 0h-95v524h-83v62q29 7 60 29t54 52h64v-667z" />
    <glyph glyph-name="two" unicode="2" 
d="M328 0h-292v91q60 87 99.5 151t63 113t33.5 88t10 76q0 33 -13 51.5t-37 18.5q-58 0 -58 -95v-10.5t1 -15.5h-93q-1 9 -1 16v11q0 88 40 135t114 47q66 0 104.5 -44t38.5 -119q0 -53 -21 -113t-69 -143l-18.5 -31.5l-20 -32.5l-28.5 -43l-43 -63h190v-88z" />
    <glyph glyph-name="three" unicode="3" 
d="M141 391q28 1 46 6t28 16t13.5 30.5t3.5 50.5q0 50 -11 72t-35 22q-37 0 -43 -48q-2 -8 -2 -21v-34h-92v18q0 80 37.5 127t102.5 47q64 0 98.5 -47t34.5 -136q0 -60 -13 -93.5t-45 -54.5q19 -11 32.5 -24.5t21.5 -32t11.5 -44.5t3.5 -61q0 -194 -144 -194
q-72 0 -110 45.5t-38 132.5v22h94q-1 -8 -1 -13.5v-9.5q0 -89 53 -89q29 0 41 24.5t12 87.5q0 46 -7.5 67.5t-27.5 33.5q-11 7 -24.5 9t-39.5 2v89z" />
    <glyph glyph-name="four" unicode="4" 
d="M23 163v89l170 415h96v-416h62v-88h-62v-163h-92v163h-174zM197 501l-93 -250h93v250z" />
    <glyph glyph-name="five" unicode="5" 
d="M312 579h-171l-5 -164q20 25 41 36t49 11q24 0 44.5 -9.5t33.5 -27.5q16 -21 22 -49t6 -79v-121q0 -53 -8 -84t-28 -55q-39 -47 -109 -47q-48 0 -82.5 23t-50.5 66q-8 19 -10.5 44.5t-2.5 64.5h95q0 -33 1.5 -48.5t5.5 -26.5q11 -35 45 -35q29 0 40 25q5 11 7 25t2 46
v107q0 19 -0.5 30t-1 18.5t-2 12t-3.5 9.5q-8 22 -37 22q-21 0 -34 -12.5t-23 -41.5l-88 6l11 342h253v-88z" />
    <glyph glyph-name="six" unicode="6" 
d="M237 489q1 8 1 15v11q0 74 -49 74q-27 0 -38.5 -20.5t-11.5 -69.5v-136q20 26 41.5 37t49.5 11q109 0 109 -139v-92q0 -53 -8 -83t-27 -55q-20 -25 -49.5 -38.5t-62.5 -13.5q-34 0 -63.5 13.5t-49.5 38.5t-27.5 55t-7.5 83v303q0 30 2 52t6.5 39t12 30.5t19.5 26.5
q40 46 105 46q66 0 105 -45t39 -120v-10t-1 -13h-95zM139 166q0 -48 12 -68t41 -20q28 0 40 20.5t12 68.5v89q0 38 -10 54t-33 16q-43 0 -62 -49v-111z" />
    <glyph glyph-name="seven" unicode="7" 
d="M324 667v-67l-124 -600h-96l123 579h-185v88h282z" />
    <glyph glyph-name="eight" unicode="8" 
d="M270 354q19 -11 32 -25t21 -33t11.5 -44t3.5 -59q0 -203 -148 -203t-148 203q0 34 3.5 59t11.5 44t21 33t32 25q-33 28 -46 61t-13 87q0 48 9.5 79.5t30.5 54.5q38 41 99 41t99 -41q21 -23 30.5 -54.5t9.5 -79.5q0 -54 -13 -87t-46 -61zM189 589q-25 0 -36.5 -22.5
t-11.5 -72.5t11.5 -72.5t37.5 -22.5t37.5 22.5t11.5 71.5q0 51 -12 73.5t-38 22.5zM189 301q-28 0 -39 -24.5t-11 -87.5q0 -62 11 -86.5t40 -24.5t40 24t11 85q0 65 -11 89.5t-41 24.5z" />
    <glyph glyph-name="nine" unicode="9" 
d="M143 178q-1 -8 -1 -15v-11q0 -74 49 -74q27 0 38.5 20.5t11.5 69.5v136q-20 -26 -41.5 -37t-49.5 -11q-109 0 -109 139v92q0 27 2 47t6 36t10.5 29.5t16.5 25.5q20 25 49.5 38.5t62.5 13.5q34 0 63.5 -13.5t49.5 -38.5t27.5 -55t7.5 -83v-303q0 -30 -2 -52t-6.5 -39
t-12 -30.5t-19.5 -26.5q-40 -46 -105 -46q-66 0 -105 45t-39 120v10t1 13h95zM241 501q0 48 -12 68t-41 20q-28 0 -40 -20.5t-12 -68.5v-89q0 -38 10 -54t33 -16q43 0 62 49v111z" />
    <glyph glyph-name="zero" unicode="0" 
d="M338 186q0 -27 -1.5 -47.5t-5 -36.5t-9.5 -29t-15 -25q-20 -27 -50.5 -42.5t-65.5 -15.5q-36 0 -67 15.5t-50 42.5q-9 12 -15 25t-9.5 29t-5 36.5t-1.5 47.5v295q0 27 1.5 47.5t5 36.5t9.5 29t15 25q19 27 50 42.5t67 15.5q35 0 66 -15.5t50 -42.5q9 -12 15 -25t9.5 -29
t5 -36.5t1.5 -47.5v-295zM138 185q0 -36 1 -51t6 -27q11 -29 46 -29q34 0 45 29q5 12 6 27t1 51v297q0 36 -1 51t-6 27q-11 29 -45 29q-35 0 -46 -29q-5 -12 -6 -27t-1 -51v-297z" />
    <glyph glyph-name="sterling" unicode="&#xa3;" 
d="M285 292h-86q7 -26 9.5 -44t2.5 -38q0 -27 -6 -47t-20 -46l29.5 -12.5t16.5 -6.5t9 -2.5t7 -0.5q17 0 26.5 22t10.5 60l84 -4q0 -85 -29.5 -132.5t-82.5 -47.5q-18 0 -39 7t-56 25q-17 8 -24 10.5t-15 2.5q-29 0 -62 -48l-58 62q25 38 48.5 56t54.5 21q10 21 14 38t4 39
q0 20 -3 37.5t-12 48.5h-85v61h65q-13 36 -20.5 59t-11.5 40t-5.5 30.5t-1.5 29.5q0 76 41 120.5t110 44.5q72 0 110 -48t37 -140l-93 -3q-1 53 -13.5 76t-40.5 23q-24 0 -39 -19.5t-15 -51.5q0 -13 1 -24t4 -26t9 -37l16 -56l5 -18h104v-61z" />
    <glyph glyph-name="dollar" unicode="$" 
d="M256 541q-29 49 -68 49q-28 0 -45 -21t-17 -56q0 -40 26 -73q5 -8 9 -12.5t11.5 -12t21.5 -19l40 -32.5q58 -47 83.5 -94t25.5 -105q0 -144 -133 -168v-98h-53v98q-37 3 -72.5 27.5t-54.5 59.5l69 58q17 -35 36 -50t46 -15q33 0 51 23t18 66q0 22 -4 38.5t-16 33.5
t-34.5 37.5l-59.5 52.5q-53 44 -76.5 86.5t-23.5 95.5q0 130 121 159v67h53v-67q71 -9 113 -67z" />
    <glyph glyph-name="cent" unicode="&#xa2;" 
d="M218 700v-107q55 -11 79.5 -47t24.5 -104v-26h-90v20q0 20 -0.5 30.5t-2.5 18.5q-8 28 -39 28q-23 0 -33 -16.5t-10 -52.5v-209q0 -69 43 -69q14 0 25 8t14 22q2 9 2.5 20.5t0.5 33.5v22h90v-31q0 -52 -11.5 -81t-40.5 -50q-12 -9 -24 -14t-28 -9v-120h-53v121
q-57 13 -82.5 51.5t-25.5 112.5v174q0 59 13.5 92.5t46.5 54.5q12 7 23 11.5t25 7.5v108h53z" />
    <glyph glyph-name="florin" unicode="&#x192;" 
d="M327 483l-16 -82h-78l-111 -571h-90l111 571h-76l16 82h76l27 138q7 35 14.5 53t24.5 33q36 33 92 33q27 0 48 -7l-15 -77q-9 2 -13.5 2h-10.5q-24 0 -36 -14t-19 -49l-22 -112h78z" />
    <glyph glyph-name="yen" unicode="&#xa5;" 
d="M240 0h-95v279h-91v61h72l-100 327h99l68 -262l65 262h96l-96 -327h72v-61h-90v-279z" />
    <glyph glyph-name="onesuperior" unicode="&#xb9;" horiz-adv-x="260" 
d="M173 267h-67v309h-52v43q19 4 38.5 17t35.5 31h45v-400z" />
    <glyph glyph-name="twosuperior" unicode="&#xb2;" horiz-adv-x="260" 
d="M224 266h-191v58q37 51 62 88.5t40 66.5t21 52t6 45q0 38 -27 38q-33 0 -33 -56v-15h-65q-1 6 -1 11.5v8.5q0 52 26 81t74 29q44 0 69 -26.5t25 -72.5q0 -23 -6 -46.5t-20.5 -52.5t-38 -65.5t-58.5 -84.5h117v-59z" />
    <glyph glyph-name="threesuperior" unicode="&#xb3;" horiz-adv-x="260" 
d="M98 504q19 1 30.5 3.5t17.5 8.5t8 16.5t2 28.5q0 29 -6 41t-20 12t-20 -10.5t-6 -34.5v-7t1 -9h-65v13q0 50 24.5 78.5t67.5 28.5q42 0 64.5 -28.5t22.5 -82.5q0 -35 -8 -55.5t-26 -31.5q22 -13 31 -34t9 -61q0 -119 -94 -119q-47 0 -71.5 28t-24.5 81v16h66
q-1 -5 -1 -9.5v-7.5q0 -49 30 -49q17 0 23.5 13.5t6.5 48.5q0 20 -2.5 32.5t-9 19t-19 9t-31.5 2.5v59z" />
    <glyph glyph-name="period" unicode="." horiz-adv-x="180" 
d="M139 0h-97v103h97v-103z" />
    <glyph glyph-name="colon" unicode=":" horiz-adv-x="180" 
d="M139 0h-97v103h97v-103zM139 394h-97v103h97v-103z" />
    <glyph glyph-name="periodcentered" unicode="&#xb7;" horiz-adv-x="180" 
d="M139 202h-97v103h97v-103z" />
    <glyph glyph-name="periodcentered" unicode="&#x2219;" horiz-adv-x="180" 
d="M139 202h-97v103h97v-103z" />
    <glyph glyph-name="periodcentered" horiz-adv-x="180" 
d="M139 202h-97v103h97v-103z" />
    <glyph glyph-name="ellipsis" unicode="&#x2026;" horiz-adv-x="540" 
d="M139 0h-97v103h97v-103zM319 0h-97v103h97v-103zM499 0h-97v103h97v-103z" />
    <glyph glyph-name="comma" unicode="," horiz-adv-x="180" 
d="M139 0l-52 -116h-45l35 116h-35v103h97v-103z" />
    <glyph glyph-name="semicolon" unicode=";" horiz-adv-x="180" 
d="M139 394h-97v103h97v-103zM139 0l-52 -116h-45l35 116h-35v103h97v-103z" />
    <glyph glyph-name="quoteleft" unicode="&#x2018;" horiz-adv-x="190" 
d="M47 551l52 116h45l-35 -116h35v-103h-97v103z" />
    <glyph glyph-name="quotedblright" unicode="&#x201d;" horiz-adv-x="327" 
d="M144 564l-52 -116h-45l35 116h-35v103h97v-103zM280 564l-52 -116h-45l35 116h-35v103h97v-103z" />
    <glyph glyph-name="quotedblleft" unicode="&#x201c;" horiz-adv-x="327" 
d="M183 551l52 116h45l-35 -116h35v-103h-97v103zM47 551l52 116h45l-35 -116h35v-103h-97v103z" />
    <glyph glyph-name="quotedblbase" unicode="&#x201e;" horiz-adv-x="327" 
d="M144 0l-52 -116h-45l35 116h-35v103h97v-103zM280 0l-52 -116h-45l35 116h-35v103h97v-103z" />
    <glyph glyph-name="exclam" unicode="!" horiz-adv-x="223" 
d="M80 197l-20 470h103l-20 -470h-63zM160 0h-97v103h97v-103z" />
    <glyph glyph-name="exclamdown" unicode="&#xa1;" horiz-adv-x="223" 
d="M143 300l20 -470h-103l20 470h63zM63 497h97v-103h-97v103z" />
    <glyph glyph-name="question" unicode="?" horiz-adv-x="346" 
d="M123 197v17q0 43 3 75.5t10.5 61.5t21 59.5t35.5 69.5q14 23 18 36t4 29q0 22 -10 34.5t-27 12.5q-20 0 -34.5 -16t-29.5 -55l-81 32q20 63 54 92t91 29q59 0 93 -33t34 -91q0 -17 -2.5 -31.5t-8.5 -30.5t-16.5 -36t-26.5 -48q-14 -24 -23 -44t-14.5 -40t-8 -42t-2.5 -49
v-12.5t1 -19.5h-81zM213 0h-97v103h97v-103z" />
    <glyph glyph-name="questiondown" unicode="&#xbf;" horiz-adv-x="346" 
d="M222 300q0 -52 -3 -88t-10.5 -66.5t-21 -60t-35.5 -68.5q-14 -23 -18 -36t-4 -29q0 -22 10 -34.5t27 -12.5q20 0 35 16t29 55l81 -32q-20 -63 -54 -92t-91 -29q-59 0 -93 33t-34 91q0 17 2 31.5t8 30.5t16.5 36t27.5 48q14 24 23 44t14.5 40.5t8 42.5t2.5 50v30h80z
M132 497h97v-103h-97v103z" />
    <glyph glyph-name="guillemotright" unicode="&#xbb;" horiz-adv-x="308" 
d="M130 325v-143l-90 -82v119l31 34l-31 34v120zM268 325v-143l-90 -75v112l31 34l-31 34v113z" />
    <glyph glyph-name="guillemotleft" unicode="&#xab;" horiz-adv-x="308" 
d="M178 182v143l90 82v-120l-31 -34l31 -34v-119zM40 182v143l90 75v-113l-31 -34l31 -34v-112z" />
    <glyph glyph-name="guilsinglright" unicode="&#x203a;" horiz-adv-x="170" 
d="M130 325v-143l-90 -82v119l31 34l-31 34v120z" />
    <glyph glyph-name="guilsinglleft" unicode="&#x2039;" horiz-adv-x="170" 
d="M40 182v143l90 82v-120l-31 -34l31 -34v-119z" />
    <glyph glyph-name="slash" unicode="/" horiz-adv-x="371" 
d="M351 667l-267 -734h-71l267 734h71z" />
    <glyph glyph-name="hyphen" unicode="-" horiz-adv-x="140" 
d="M140 208h-140v90h140v-90z" />
    <glyph glyph-name="sfthyphen" horiz-adv-x="140" 
d="M140 208h-140v90h140v-90z" />
    <glyph glyph-name="endash" unicode="&#x2013;" 
d="M338 208h-295v90h295v-90z" />
    <glyph glyph-name="emdash" unicode="&#x2014;" horiz-adv-x="429" 
d="M429 208h-429v90h429v-90z" />
    <glyph glyph-name="parenleft" unicode="(" horiz-adv-x="293" 
d="M186 -124q-71 110 -104 209.5t-33 204.5t33 204.5t104 209.5l66 -36q-59 -96 -86 -187t-27 -191t27 -191t86 -187z" />
    <glyph glyph-name="parenright" unicode=")" horiz-adv-x="293" 
d="M108 704q71 -110 104 -209.5t33 -204.5t-33 -205t-104 -209l-66 36q58 96 85.5 187t27.5 191t-27.5 191t-85.5 187z" />
    <glyph glyph-name="bracketleft" unicode="[" horiz-adv-x="293" 
d="M230 580h-72v-588h72v-87h-160v762h160v-87z" />
    <glyph glyph-name="bracketright" unicode="]" horiz-adv-x="293" 
d="M63 -8h72v588h-72v87h160v-762h-160v87z" />
    <glyph glyph-name="ampersand" unicode="&#x26;" horiz-adv-x="444" 
d="M411 299q-10 -51 -23 -90.5t-34 -80.5q7 -12 21 -22.5t31 -15.5v-100q-36 6 -60.5 19t-46.5 39q-28 -30 -54 -42.5t-61 -12.5q-67 0 -105.5 40.5t-38.5 110.5q0 24 3 43.5t11.5 40.5t24 46.5t39.5 61.5q-25 62 -36 105t-11 81q0 34 9.5 62t26 48t40 31t52.5 11
q54 0 85 -35t31 -95q0 -26 -4.5 -49t-16 -47.5t-29.5 -52t-45 -61.5q7 -15 16.5 -32.5l19.5 -35l20.5 -34.5l19.5 -31q11 23 18.5 49t15.5 68zM182 416q26 35 38 66.5t12 66.5q0 62 -37 62q-20 0 -31 -21t-11 -56q0 -51 29 -118zM161 251q-17 -31 -24 -54t-7 -44
q0 -27 16.5 -43.5t42.5 -16.5q17 0 29 5.5t24 18.5q-27 40 -45.5 70t-35.5 64z" />
    <glyph glyph-name="section" unicode="&#xa7;" horiz-adv-x="389" 
d="M231 522q0 26 -0.5 35t-3.5 16q-8 22 -32 22q-14 0 -22.5 -8t-8.5 -20q0 -8 5 -16t19 -24l127 -154q34 -43 34 -91q0 -78 -75 -110l10 -13q12 -15 19.5 -37t7.5 -42q0 -52 -33 -82.5t-89 -30.5q-61 0 -95.5 34t-34.5 94v8.5t2 11.5h91q-2 -7 -2 -10.5v-7.5
q0 -23 10.5 -35.5t28.5 -12.5q14 0 23 9t9 23q0 8 -3.5 15t-14.5 20l-108 130q-32 38 -43.5 62t-11.5 51q0 36 20 61.5t64 42.5l-10 12q-40 47 -40 94q0 48 34 78t89 30q57 0 91 -34.5t34 -92.5v-9t-1 -19h-90zM170 405q-21 -10 -30.5 -19.5t-9.5 -23.5q0 -9 4 -17t16 -22
l75 -91q18 8 26 19.5t8 29.5q0 9 -5 19t-19 27z" />
    <glyph glyph-name="dagger" unicode="&#x2020;" horiz-adv-x="388" 
d="M348 420h-109v-420h-90v420h-109v82h109v165h90v-165h109v-82z" />
    <glyph glyph-name="daggerdbl" unicode="&#x2021;" horiz-adv-x="388" 
d="M348 420h-109v-173h109v-82h-109v-165h-90v165h-109v82h109v173h-109v82h109v165h90v-165h109v-82z" />
    <glyph glyph-name="asterisk" unicode="*" horiz-adv-x="313" 
d="M40 556l23 69l64 -30l-7 72h73l-7 -72l64 30l23 -69l-70 -14l48 -53l-59 -44l-35 62l-36 -62l-59 44l48 52z" />
    <glyph glyph-name="quotesingle" unicode="'" horiz-adv-x="195" 
d="M59 400l-16 267h108l-17 -267h-75z" />
    <glyph glyph-name="quotedbl" unicode="&#x22;" horiz-adv-x="357" 
d="M59 400l-16 267h105l-17 -267h-72zM224 400l-16 267h105l-17 -267h-72z" />
    <glyph glyph-name="at" unicode="@" horiz-adv-x="449" 
d="M349 177l-12 28q-17 -21 -32.5 -29.5t-37.5 -8.5q-40 0 -59 20t-19 64v188q0 43 22 67t61 24q17 0 29.5 -5.5t28.5 -20.5v21q0 38 -27.5 60t-72.5 22q-22 0 -41.5 -7t-33.5 -19q-17 -14 -22.5 -32t-5.5 -54v-311q0 -31 4 -49.5t15 -32.5q30 -42 89 -42q52 0 95 35l48 -46
q-53 -59 -143 -59q-39 0 -75.5 11t-58.5 30q-25 21 -39.5 56.5t-14.5 74.5v349q0 80 47 123t135 43q86 0 133.5 -42.5t47.5 -118.5v-339h-61zM269 272q0 -21 7 -29.5t24 -8.5t23.5 8.5t6.5 29.5v153q0 22 -6.5 30t-23.5 8t-24 -8.5t-7 -29.5v-153z" />
    <glyph glyph-name="numbersign" unicode="#" horiz-adv-x="400" 
d="M292 667h57l-31 -190h48l-11 -68h-48l-26 -159h53l-11 -68h-53l-30 -182h-57l30 182h-75l-29 -182h-58l30 182h-48l12 68h47l26 159h-51l13 67h49l31 191h58l-31 -190h74zM175 409l-26 -159h75l26 159h-75z" />
    <glyph glyph-name="degree" unicode="&#xb0;" horiz-adv-x="407" 
d="M206 674q29 0 54.5 -11.5t45 -31t30.5 -45.5t11 -56t-11 -56.5t-30.5 -46t-45.5 -30.5t-56 -11t-56.5 11t-46 30.5t-30.5 45.5t-11 56t11.5 56.5t31 46t46 31t57.5 11.5zM202 606q-30 0 -52.5 -23t-22.5 -53q0 -32 22.5 -54.5t53.5 -22.5q32 0 54.5 22.5t22.5 53.5
q0 32 -23 54.5t-55 22.5z" />
    <glyph glyph-name="plus" unicode="+" 
d="M338 301h-107v-105h-81v105h-107v78h107v105h81v-105h107v-78z" />
    <glyph glyph-name="minus" unicode="&#xad;" 
d="M338 301h-295v78h295v-78z" />
    <glyph glyph-name="multiply" unicode="&#xd7;" 
d="M321 417l-75 -76l74 -74l-57 -57l-74 74l-76 -76l-55 55l76 76l-75 74l58 57l74 -74l76 76z" />
    <glyph glyph-name="divide" unicode="&#xf7;" 
d="M338 301h-295v78h295v-78zM229 165h-78v84h78v-84zM229 432h-78v84h78v-84z" />
    <glyph glyph-name="equal" unicode="=" 
d="M338 378h-295v78h295v-78zM338 224h-295v78h295v-78z" />
    <glyph glyph-name="trademark" unicode="&#x2122;" horiz-adv-x="553" 
d="M154 287h-65v321h-62v59h189v-59h-62v-321zM453 287v233l-55 -233h-35l-57 234v-234h-61v380h84l52 -214l48 214h85v-380h-61z" />
    <glyph glyph-name="paragraph" unicode="&#xb6;" horiz-adv-x="418" 
d="M189 320q-32 1 -59 15t-47 37t-31.5 54t-11.5 66q0 38 12.5 70t35 55.5t53.5 36.5t68 13h172v-30h-40v-737h-48v737h-55v-737h-49v420z" />
    <glyph glyph-name="currency" unicode="&#xa4;" horiz-adv-x="416" 
d="M371 228l-57 -58l-37 37q-20 -10 -34.5 -13.5t-34.5 -3.5t-35.5 4t-35.5 14l-39 -39l-55 55l39 39q-10 18 -14 34.5t-4 35.5t4 35t14 34l-38 38l58 57l37 -37q35 17 69 17q19 0 35 -4t35 -14l40 39l54 -54l-39 -40q10 -18 14 -34t4 -36t-3.5 -35t-13.5 -34zM206 409
q-15 0 -28.5 -6t-24 -16.5t-16.5 -24t-6 -28.5q0 -32 22.5 -54.5t53.5 -22.5q32 0 54.5 22.5t22.5 52.5q0 32 -23 54.5t-55 22.5z" />
    <glyph glyph-name="quotesinglbase" unicode="&#x201a;" horiz-adv-x="190" 
d="M144 0l-52 -116h-45l35 116h-35v103h97v-103z" />
    <glyph glyph-name="quoteright" unicode="&#x2019;" horiz-adv-x="190" 
d="M144 564l-52 -116h-45l35 116h-35v103h97v-103z" />
    <glyph glyph-name="braceleft" unicode="{" horiz-adv-x="313" 
d="M184 401q0 -48 -12 -73t-43 -42q31 -18 43 -44t12 -73v-88q0 -27 4 -45t15 -28t29.5 -14.5t47.5 -4.5v-83q-41 0 -66 1t-41 4.5t-26 9.5t-20 17q-17 18 -25 45t-8 70v103q0 43 -12.5 64t-44.5 30v76q31 8 44 29t13 61v115q0 38 8.5 63.5t26.5 42.5q10 10 20.5 16t26 9
t40.5 4t64 1v-88q-29 0 -47.5 -4.5t-29 -14.5t-15 -27t-4.5 -43v-89z" />
    <glyph glyph-name="braceright" unicode="}" horiz-adv-x="313" 
d="M129 169q0 47 12 73t43 44q-31 17 -43 42t-12 73v89q0 26 -4.5 43t-15 27t-29 14.5t-46.5 4.5v88q39 0 63.5 -1t40 -4t25.5 -9t21 -16q18 -17 26.5 -42.5t8.5 -63.5v-115q0 -40 13 -61t45 -29v-76q-32 -9 -45 -30t-13 -64v-103q0 -43 -8 -70t-25 -45q-10 -11 -20 -17
t-25.5 -9.5t-41 -4.5t-65.5 -1v83q28 0 46.5 4.5t29.5 14.5t15 28t4 45v88z" />
    <glyph glyph-name="ordfeminine" unicode="&#xaa;" horiz-adv-x="232" 
d="M142 267q-2 11 -2.5 15.5t-1.5 12.5q-32 -32 -61 -32q-26 0 -40.5 19.5t-14.5 53.5q0 19 5.5 35t18.5 30t35 28.5t55 32.5v17q0 23 -4 30t-15 7t-16 -8.5t-6 -31.5h-65q6 95 92 95q41 0 62 -26q10 -12 13 -26.5t3 -45.5v-97v-42t1 -26.5t2 -19.5t4 -21h-65zM136 413
q-26 -16 -37 -31.5t-11 -36.5q0 -27 15 -27q18 0 33 25v70z" />
    <glyph glyph-name="ordmasculine" unicode="&#xba;" horiz-adv-x="226" 
d="M200 366q0 -26 -4 -42.5t-14 -29.5q-11 -14 -29.5 -22.5t-38.5 -8.5t-39 8.5t-30 22.5q-10 13 -14 29.5t-4 42.5v102q0 26 4 42.5t14 29.5q11 14 30 22.5t39 8.5t38.5 -8.5t29.5 -22.5q10 -13 14 -29.5t4 -42.5v-102zM91 355q0 -37 23 -37q22 0 22 37v124q0 37 -22 37
q-23 0 -23 -37v-124z" />
    <glyph glyph-name="plusminus" unicode="&#xb1;" 
d="M338 59h-295v78h295v-78zM338 296h-107v-105h-81v105h-107v78h107v105h81v-105h107v-78z" />
    <glyph glyph-name="onehalf" unicode="&#xbd;" horiz-adv-x="606" 
d="M173 267h-67v309h-52v43q19 4 38.5 17t35.5 31h45v-400zM389 700h51l-227 -733h-46zM570 0h-191v58q37 51 62 88.5t40 66.5t21 51.5t6 44.5q0 38 -27 38q-33 0 -33 -56v-15h-65q-1 6 -1 11.5v8.5q0 52 26 81t74 29q44 0 69 -26.5t25 -72.5q0 -23 -6 -46t-20.5 -52
t-38 -65.5t-58.5 -84.5h117v-59z" />
    <glyph glyph-name="onequarter" unicode="&#xbc;" horiz-adv-x="606" 
d="M173 267h-67v309h-52v43q19 4 38.5 17t35.5 31h45v-400zM389 700h51l-227 -733h-46zM368 96v57l109 247h65v-245h39v-59h-39v-96h-64v96h-110zM480 296l-58 -143h58v143z" />
    <glyph glyph-name="threequarters" unicode="&#xbe;" horiz-adv-x="606" 
d="M98 504q19 1 30.5 3.5t17.5 8.5t8 16.5t2 28.5q0 29 -6 41t-20 12t-20 -10.5t-6 -34.5v-7t1 -9h-65v13q0 50 24.5 78.5t67.5 28.5q42 0 64.5 -28.5t22.5 -82.5q0 -35 -8 -55.5t-26 -31.5q22 -13 31 -34t9 -61q0 -119 -94 -119q-47 0 -71.5 28t-24.5 81v16h66
q-1 -5 -1 -9.5v-7.5q0 -49 30 -49q17 0 23.5 13.5t6.5 48.5q0 20 -2.5 32.5t-9 19t-19 9t-31.5 2.5v59zM389 700h51l-227 -733h-46zM368 96v57l109 247h65v-245h39v-59h-39v-96h-64v96h-110zM480 296l-58 -143h58v143z" />
    <glyph glyph-name="fraction" horiz-adv-x="86" 
d="M130 700h50l-227 -733h-46z" />
    <glyph glyph-name="percent" unicode="%" horiz-adv-x="532" 
d="M203 428q0 -28 -3.5 -43t-13.5 -28q-11 -14 -28 -22t-37 -8q-19 0 -36 8t-28 22q-10 13 -13.5 28.5t-3.5 42.5v148q0 27 3.5 42.5t13.5 28.5q22 30 65 30q20 0 36.5 -8t27.5 -22q10 -13 13.5 -28t3.5 -43v-148zM97 428q0 -31 5 -40.5t20 -9.5q14 0 19 9.5t5 40.5v148
q0 31 -5 40.5t-20 9.5q-14 0 -19 -9.5t-5 -40.5v-148zM440 667l-288 -667h-60l288 667h60zM492 92q0 -28 -3.5 -43t-13.5 -28q-22 -31 -65 -31q-41 0 -64 31q-10 13 -13.5 28t-3.5 43v147q0 28 3.5 43t13.5 28q22 30 65 30q20 0 36.5 -8t27.5 -22q10 -13 13.5 -28t3.5 -43
v-147zM386 91q0 -31 5 -40.5t20 -9.5q14 0 19 9.5t5 40.5v149q0 30 -5 39.5t-20 9.5q-14 0 -19 -9.5t-5 -39.5v-149z" />
    <glyph glyph-name="perthousand" unicode="&#x2030;" horiz-adv-x="748" 
d="M203 428q0 -28 -3.5 -43t-13.5 -28q-11 -14 -28 -22t-37 -8q-19 0 -36 8t-28 22q-10 13 -13.5 28.5t-3.5 42.5v148q0 27 3.5 42.5t13.5 28.5q22 30 65 30q20 0 36.5 -8t27.5 -22q10 -13 13.5 -28t3.5 -43v-148zM97 428q0 -31 5 -40.5t20 -9.5q14 0 19 9.5t5 40.5v148
q0 31 -5 40.5t-20 9.5q-14 0 -19 -9.5t-5 -40.5v-148zM440 667l-288 -667h-60l288 667h60zM492 92q0 -28 -3.5 -43t-13.5 -28q-22 -31 -65 -31q-41 0 -64 31q-10 13 -13.5 28t-3.5 43v147q0 28 3.5 43t13.5 28q22 30 65 30q20 0 36.5 -8t27.5 -22q10 -13 13.5 -28t3.5 -43
v-147zM386 91q0 -31 5 -40.5t20 -9.5q14 0 19 9.5t5 40.5v149q0 30 -5 39.5t-20 9.5q-14 0 -19 -9.5t-5 -39.5v-149zM708 92q0 -28 -3.5 -43t-13.5 -28q-22 -31 -65 -31q-41 0 -64 31q-10 13 -13.5 28t-3.5 43v147q0 28 3.5 43t13.5 28q22 30 65 30q20 0 36.5 -8t27.5 -22
q10 -13 13.5 -28t3.5 -43v-147zM602 91q0 -31 5 -40.5t20 -9.5q14 0 19 9.5t5 40.5v149q0 30 -5 39.5t-20 9.5q-14 0 -19 -9.5t-5 -39.5v-149z" />
    <glyph glyph-name="backslash" unicode="\" horiz-adv-x="371" 
d="M358 -67h-71l-267 734h71z" />
    <glyph glyph-name="dieresis" unicode="&#xa8;" horiz-adv-x="500" 
d="M224 578h-87v89h87v-89zM364 578h-87v89h87v-89z" />
    <glyph glyph-name="dotaccent" horiz-adv-x="500" 
d="M294 578h-87v89h87v-89z" />
    <glyph glyph-name="ring" horiz-adv-x="500" 
d="M251 698q30 0 51.5 -20t21.5 -49t-21.5 -49.5t-51.5 -20.5q-31 0 -52.5 20.5t-21.5 49.5t21.5 49t52.5 20zM250 663q-14 0 -25 -10t-11 -24t10.5 -24.5t26.5 -10.5q15 0 25.5 10.5t10.5 24.5t-10.5 24t-26.5 10z" />
    <glyph glyph-name="acute" unicode="&#xb4;" horiz-adv-x="500" 
d="M248 660h96l-72 -80h-70z" />
    <glyph glyph-name="grave" unicode="`" horiz-adv-x="500" 
d="M221 580l-72 80h97l45 -80h-70z" />
    <glyph glyph-name="circumflex" unicode="&#x2c6;" horiz-adv-x="500" 
d="M300 660l58 -80h-80l-28 31l-29 -31h-80l58 80h101z" />
    <glyph glyph-name="caron" horiz-adv-x="500" 
d="M199 580l-58 80h80l29 -31l28 31h80l-58 -80h-101z" />
    <glyph glyph-name="breve" horiz-adv-x="500" 
d="M358 628q-35 -49 -108 -49q-71 0 -108 49l57 34q14 -9 25.5 -13t25.5 -4q25 0 52 17z" />
    <glyph glyph-name="tilde" unicode="&#x2dc;" horiz-adv-x="500" 
d="M153 650q15 8 27 11.5t28 3.5q12 0 21 -1.5t22 -6.5q20 -8 28.5 -10t19.5 -2t20.5 3t26.5 14v-69q-18 -11 -26.5 -14t-19.5 -3t-20 2t-29 10q-13 5 -22 6.5t-20 1.5q-17 0 -29 -3.5t-27 -12.5v70z" />
    <glyph glyph-name="hungarumlaut" unicode="&#xa;" horiz-adv-x="500" 
d="M178 660h96l-72 -80h-70zM318 660h96l-72 -80h-70z" />
    <glyph glyph-name="cedilla" unicode="&#xb8;" horiz-adv-x="500" 
d="M290 -114l-22 -56h-47l17 56h-27v68h79v-68z" />
    <glyph glyph-name="ogonek" horiz-adv-x="500" 
d="M297 0q-49 -40 -49 -76q0 -37 48 -37q8 0 14.5 1t15.5 5l-8 -57q-11 -4 -19 -5.5t-20 -1.5q-42 0 -66.5 20t-24.5 53q0 26 13.5 49t43.5 49h52z" />
    <glyph glyph-name="macron" unicode="&#xaf;" horiz-adv-x="500" 
d="M153 653h193v-67h-193v67z" />
    <glyph glyph-name="copyright" unicode="&#xa9;" horiz-adv-x="775" 
d="M393 679q69 0 131 -27.5t108 -74.5t73 -110t27 -134t-27 -134t-73.5 -110t-109.5 -74t-134 -27t-134 27t-110 74t-74 110t-27 134q0 73 27 136t74.5 109.5t111 73.5t137.5 27zM385 627q-59 0 -111 -23.5t-91 -63t-61.5 -93t-22.5 -113.5q0 -61 23 -114.5t62 -93.5
t91.5 -63t112.5 -23t112.5 23t91.5 63t61.5 93.5t22.5 113.5q0 61 -22.5 115t-62 93.5t-92.5 62.5t-114 23zM413 395q1 5 1 8.5v5.5q0 40 -4 49q-7 18 -26 18q-22 0 -28 -25q-1 -5 -1 -13.5t-1 -43.5v-125q0 -19 0.5 -30t1 -17t1 -9t1.5 -6q8 -19 26 -19t24 15.5t6 61.5v5
t-1 8h66q1 -10 1 -19v-13q0 -59 -24.5 -89.5t-71.5 -30.5q-45 0 -72 32q-7 9 -11.5 18t-7.5 21t-4 28t-1 40v133q0 24 1 40t3.5 28t7 21.5t12.5 18.5q27 32 73 32t70.5 -29t24.5 -84v-12t-1 -18h-66z" />
    <glyph glyph-name="registered" unicode="&#xae;" horiz-adv-x="775" 
d="M392 679q70 0 131.5 -27.5t108 -74.5t73.5 -110t27 -134t-27 -134t-73.5 -110t-109.5 -74t-134 -27t-134 27t-110 74t-74 110t-27 134q0 72 27 135.5t74.5 110t111 73.5t136.5 27zM385 627q-59 0 -111 -23.5t-91 -63.5t-61.5 -93.5t-22.5 -113.5t22.5 -113.5t62 -93.5
t92 -63t112.5 -23q59 0 111.5 23t91.5 62.5t62 93t23 114.5t-22.5 115t-62 93.5t-92.5 62.5t-114 23zM362 137h-66v400h86q53 0 77.5 -28.5t24.5 -89.5q0 -38 -9 -61t-30 -39l46 -182h-70l-37 164h-22v-164zM378 363q15 0 21.5 3t11.5 11q7 17 7 42q0 32 -8.5 44t-31.5 12
h-16v-112h16z" />
    <glyph glyph-name="Acircumflex" unicode="&#xc2;" horiz-adv-x="405" 
d="M149 147l-23 -147h-99l109 667h130l116 -667h-103l-23 147h-107zM201 506l-38 -266h78zM253 800l58 -80h-80l-28 31l-29 -31h-80l58 80h101z" />
    <glyph glyph-name="nonbreakingspace" horiz-adv-x="177" 
 />
    <glyph glyph-name="bullet" unicode="&#x2022;" horiz-adv-x="667" 
d="M337 478q28 0 52.5 -11t43 -30t29.5 -44t11 -53q0 -29 -11 -54.5t-29.5 -44t-44 -29.5t-53.5 -11q-29 0 -54 11t-44 29.5t-30 43.5t-11 54t11 54.5t30 44t44.5 29.5t55.5 11z" />
    <glyph glyph-name="less" unicode="&#x3c;" horiz-adv-x="500" 
d="M466 491l-329 -156l329 -155v-97l-433 211v83l433 211v-97z" />
    <glyph glyph-name="greater" unicode="&#x3e;" horiz-adv-x="500" 
d="M34 180l329 156l-329 155v97l433 -211v-83l-433 -211v97z" />
    <glyph glyph-name="logicalnot" unicode="&#xac;" horiz-adv-x="500" 
d="M371 195h-338v86h433v-281h-95v195z" />
    <glyph glyph-name="asciicircum" unicode="^" horiz-adv-x="500" 
d="M27 368l168 301h110l168 -301h-90l-133 235l-133 -235h-90z" />
    <glyph glyph-name="bar" unicode="|" horiz-adv-x="500" 
d="M299 667v-834h-98v834h98z" />
    <glyph glyph-name="brokenbar" unicode="&#xa6;" horiz-adv-x="500" 
d="M299 667v-339h-98v339h98zM299 153v-320h-98v320h98z" />
    <glyph glyph-name="underscore" unicode="_" horiz-adv-x="500" 
d="M500 -67v-62h-500v62h500z" />
    <glyph glyph-name="asciitilde" unicode="~" horiz-adv-x="667" 
d="M94 613q53 119 139 119q20 0 45.5 -8.5t69.5 -29.5l34.5 -16t23 -9.5t16.5 -4.5t15 -1q26 0 46 16.5t41 55.5l50 -41q-26 -61 -62 -89.5t-86 -28.5q-10 0 -18.5 1.5t-21 6t-31 13t-46.5 22.5t-46.5 19.5t-34.5 5.5q-23 0 -43 -16.5t-41 -54.5z" />
    <glyph glyph-name="mu" unicode="&#xb5;" horiz-adv-x="337" 
d="M298 497v-497h-90v40q-8 -27 -17.5 -37t-26.5 -10q-13 0 -21 6.5t-14 23.5v-193h-90v667h90v-370q0 -35 8.5 -50t28.5 -15q30 0 42 40v395h90z" />
    <glyph glyph-name="Adieresis" unicode="&#xc4;" horiz-adv-x="405" 
d="M149 147l-23 -147h-99l109 667h130l116 -667h-103l-23 147h-107zM201 506l-38 -266h78zM177 720h-87v89h87v-89zM317 720h-87v89h87v-89z" />
    <glyph glyph-name="Aacute" unicode="&#xc1;" horiz-adv-x="405" 
d="M149 147l-23 -147h-99l109 667h130l116 -667h-103l-23 147h-107zM201 506l-38 -266h78zM201 800h96l-72 -80h-70z" />
    <glyph glyph-name="Agrave" unicode="&#xc0;" horiz-adv-x="405" 
d="M149 147l-23 -147h-99l109 667h130l116 -667h-103l-23 147h-107zM201 506l-38 -266h78zM167 720l-72 80h97l45 -80h-70z" />
    </font>
</defs>
</svg>
